<svg width="80" height="48" viewBox="0 0 80 48" fill="none" xmlns="http://www.w3.org/2000/svg">
<path fill-rule="evenodd" clip-rule="evenodd" d="M36.122 0C36.7523 0.303623 37.3553 0.607246 37.9582 0.883266C38.5886 1.15929 39.1915 1.54572 39.7396 1.84934C40.3152 2.18056 40.8359 2.45658 41.3292 2.78781C42.3159 3.45026 43.1655 3.9471 43.8506 4.47154C45.221 5.49281 45.9884 6.07246 45.9884 6.07246C45.9884 6.07246 45.1662 5.71363 43.6862 5.10638C42.9736 4.80276 42.0692 4.52674 41.0552 4.16791C40.5618 4.0023 39.9863 3.86429 39.4382 3.72628C38.8626 3.58827 38.2597 3.39505 37.6293 3.28465C36.999 3.17424 36.3412 3.03623 35.6835 2.92582C34.9983 2.84301 34.3131 2.76021 33.6006 2.6774C32.888 2.6222 32.148 2.59459 31.408 2.53939C30.668 2.51179 29.9007 2.53939 29.1607 2.56699C28.3933 2.59459 27.6259 2.6774 26.8585 2.7326C26.0911 2.81541 25.2963 2.95342 24.5289 3.06383C24.0082 3.17424 23.5149 3.28465 22.9942 3.39505C22.912 3.45026 22.8023 3.50546 22.7201 3.53307C22.9394 3.56067 23.186 3.56067 23.4053 3.58827C24.1727 3.69868 24.8852 3.80909 25.5978 3.9471C26.3104 4.08511 26.9956 4.25072 27.6259 4.38873C28.2837 4.52674 28.8866 4.71995 29.4896 4.91317C30.0651 5.10638 30.6406 5.24439 31.1614 5.43761C32.2028 5.85164 33.1072 6.15526 33.8198 6.48649C35.2724 7.14894 36.0946 7.53537 36.0946 7.53537C36.0946 7.53537 35.245 7.39735 33.765 7.14894C33.025 7.03853 32.1206 6.98332 31.1065 6.87292C30.5858 6.81771 30.0377 6.84531 29.4896 6.81771C28.914 6.81771 28.3111 6.79011 27.7081 6.84531C27.0778 6.90052 26.4474 6.90052 25.7897 6.98332C25.1319 7.06613 24.4467 7.17654 23.7616 7.25934C23.0764 7.39735 22.3638 7.53537 21.6513 7.70098C20.9387 7.86659 20.2261 8.08741 19.4861 8.30822C18.7736 8.52904 18.0336 8.80506 17.2936 9.08108C16.5536 9.3847 15.841 9.68833 15.1011 10.0196C14.827 10.1576 14.5255 10.2956 14.2515 10.4336C14.4433 10.4336 14.6351 10.4336 14.7996 10.4612C15.4573 10.4612 16.0877 10.5164 16.6632 10.5992C17.2662 10.6544 17.8143 10.7096 18.335 10.7924C19.4039 10.9856 20.3083 11.1236 21.0483 11.2892C22.5557 11.6757 23.4053 11.8965 23.4053 11.8965C23.4053 11.8965 22.5557 11.9241 21.0757 11.9793C20.3357 12.0069 19.4587 12.1449 18.4447 12.2553C17.9514 12.3105 17.4032 12.4485 16.8551 12.5589C16.307 12.6694 15.704 12.7798 15.1285 12.9454C12.4426 13.7182 11.3464 14.6843 8.90716 16.2024C9.18123 16.1748 9.42789 16.1748 9.67455 16.1748C10.2775 16.1472 10.8256 16.1196 11.3464 16.1196C12.4152 16.1748 13.3196 16.1472 14.0596 16.23C15.567 16.3956 16.4166 16.506 16.4166 16.506C16.4166 16.506 15.5944 16.644 14.1418 16.9201C13.4293 17.0581 12.5522 17.3341 11.593 17.5825C11.0997 17.7205 10.6064 17.9137 10.0582 18.107C8.6605 18.9902 8.35903 18.9626 5.42652 21.6952C5.64577 21.64 5.83762 21.5848 6.05687 21.5296C6.68722 21.3364 7.29017 21.226 7.86571 21.1156C8.44125 21.0052 8.98938 20.8672 9.4827 20.812C10.5242 20.7016 11.4012 20.5635 12.1686 20.5083C13.6485 20.4531 14.4981 20.3979 14.4981 20.3979C14.4981 20.3979 13.7033 20.674 12.3056 21.1708C11.6204 21.4192 10.7982 21.8332 9.86639 22.2197C9.40048 22.4405 8.90716 22.7165 8.41384 22.9925C7.89312 23.2685 7.37239 23.5446 6.82426 23.9034C6.27612 24.2622 5.72799 24.5934 5.15245 24.9799C2.41179 27.6573 0.794793 30.3071 0 33.9781C13.5389 17.6653 41.3566 8.91547 59.8287 22.1093C59.0887 21.9988 57.8554 21.778 57.1429 21.916C56.6221 22.0265 55.9918 22.4957 55.6081 23.4066C53.9911 27.3537 50.3734 35.9379 39.5478 39.0569C33.0798 40.9063 26.5845 39.1121 21.8979 37.8148C15.5122 36.0483 11.7575 37.7044 5.17986 34.6406C8.08496 37.5388 8.93457 38.1185 11.9219 39.0569C12.4974 39.1397 13.0456 39.1949 13.5937 39.2777C14.1418 39.3606 14.6352 39.3882 15.1285 39.4158C15.6218 39.4434 16.0877 39.471 16.5262 39.471C17.4032 39.4434 18.1706 39.471 18.801 39.4434C20.0617 39.3606 20.8016 39.3053 20.8016 39.3053C20.8016 39.3053 20.1165 39.5262 18.8832 39.9402C18.2802 40.1334 17.5129 40.299 16.6358 40.5474C16.1973 40.6578 15.7314 40.7407 15.2381 40.8235C14.7448 40.9339 14.2241 41.0167 13.6485 41.0719C13.4567 41.0995 13.2922 41.1271 13.1004 41.1547C14.0322 41.5963 14.3885 41.9551 16.3344 42.2036C16.8825 42.2036 17.3758 42.176 17.8691 42.1208C18.3625 42.0932 18.8284 42.0656 19.2669 42.0104C20.1439 41.8723 20.9113 41.7895 21.5142 41.6791C22.7749 41.4307 23.4875 41.2651 23.4875 41.2651C23.4875 41.2651 22.8297 41.5963 21.6513 42.1484C21.0757 42.4244 20.3357 42.7004 19.4861 43.0316C19.075 43.1972 18.6091 43.3353 18.1158 43.5009C17.8965 43.5837 17.7047 43.6389 17.4854 43.7217C19.7328 44.2737 19.3217 44.3841 21.8157 44.2185C22.3912 44.1633 22.9394 44.0805 23.4601 44.0253C24.0082 43.9701 24.5015 43.8597 24.9675 43.7769C25.4608 43.6665 25.8993 43.6113 26.3378 43.5009C27.1874 43.28 27.9274 43.0868 28.5577 42.8936C29.7636 42.4796 30.4762 42.2588 30.4762 42.2588C30.4762 42.2588 29.8458 42.6728 28.7496 43.3629C28.2014 43.7217 27.4889 44.0805 26.6941 44.5221C26.283 44.743 25.8445 44.9362 25.3786 45.157C24.9126 45.3778 24.4193 45.6262 23.8986 45.8194C23.7616 45.8746 23.5971 45.9298 23.4601 45.9851C23.7342 45.9851 24.0082 46.0127 24.2823 46.0127C24.9675 46.0127 25.6526 45.9851 26.3104 45.9851C26.9681 45.9298 27.6533 45.9022 28.3111 45.847C28.9688 45.7642 29.5992 45.709 30.2295 45.5986C30.8599 45.4882 31.4628 45.3778 32.0658 45.2398C32.6687 45.1018 33.2443 44.9362 33.7924 44.7982C34.3405 44.6325 34.8613 44.4669 35.382 44.3013C35.9027 44.1633 36.3686 43.9425 36.8345 43.7769C37.3004 43.5837 37.739 43.4457 38.1501 43.2524C38.9448 42.866 39.6574 42.5624 40.233 42.2588C41.3566 41.6515 42.0144 41.2927 42.0144 41.2927C42.0144 41.2927 41.4389 41.7895 40.4796 42.6728C39.9863 43.1144 39.3285 43.5837 38.616 44.1633C38.2597 44.4393 37.8486 44.7154 37.4101 45.019C36.9716 45.3226 36.5331 45.6262 36.0397 45.9298C35.5464 46.2335 35.0531 46.5371 34.505 46.8407C33.9568 47.1167 33.4087 47.4204 32.8332 47.724C32.6687 47.8068 32.4769 47.8896 32.3124 47.9724C32.3947 47.9724 32.4769 47.9724 32.5865 48C33.025 47.9172 33.4909 47.8344 33.9294 47.7516C34.5872 47.586 35.2724 47.448 35.9027 47.2547C36.5331 47.0615 37.1908 46.8959 37.8212 46.6751C38.4515 46.4543 39.0545 46.2611 39.6574 46.0127C40.233 45.7642 40.8359 45.5434 41.384 45.2674C41.9322 44.9914 42.4803 44.743 43.001 44.4669C43.5218 44.1909 44.0151 43.9149 44.481 43.6389C44.9743 43.3905 45.3854 43.0868 45.8239 42.8108C46.235 42.5348 46.6461 42.2864 47.0024 42.0104C47.715 41.4583 48.3727 41.0167 48.8661 40.6026C49.8801 39.747 50.4556 39.2777 50.4556 39.2777C50.4556 39.2777 49.9897 39.885 49.1675 40.9891C48.7564 41.5411 48.2083 42.1208 47.6054 42.866C47.3039 43.2248 46.9476 43.5837 46.5913 43.9701C46.235 44.3565 45.8513 44.7706 45.4128 45.157C45.0291 45.5158 44.618 45.9022 44.1795 46.2887C60.4591 40.1886 60.2672 15.7056 80 13.5526C78.9037 12.973 77.8075 12.3657 76.766 12.1173C75.8068 11.8689 74.6283 11.9793 74.0254 12.0897C70.4077 7.977 64.3782 10.3508 59.9383 11.7309L53.1689 7.977C52.6482 7.48016 52.0726 6.98332 51.4149 6.37608C50.7845 5.85164 50.1268 5.3272 49.469 4.80276C48.8112 4.27832 48.0987 3.80909 47.3861 3.28465C46.6735 2.78781 45.9335 2.34618 45.221 1.87694C44.9469 1.71133 44.6728 1.54572 44.3714 1.3801C41.5759 0.441633 38.8352 0 36.122 0Z" fill="url(#paint0_linear_444_9)"/>
<path fill-rule="evenodd" clip-rule="evenodd" d="M39 36.0455C37.7148 36.6455 36.293 37 34.7891 37C29.6211 37 25.4102 33.0455 25 28H31.3711C31.7266 29.5545 33.1211 30.7 34.7891 30.7C35.1445 30.7 35.4727 30.6455 35.8008 30.5636L39 36.0455Z" fill="#32B6B3"/>
<path fill-rule="evenodd" clip-rule="evenodd" d="M40.011 19C42.4301 20.7627 44 23.6915 44 27C44 30.3085 42.4301 33.2644 40.011 35L37 29.522C37.6434 28.8983 38.0551 27.9763 38.0551 26.9729C38.0551 25.9695 37.6434 25.0746 37 24.4237L40.011 19Z" fill="#552383"/>
<path fill-rule="evenodd" clip-rule="evenodd" d="M25 26C25.4102 20.9545 29.6211 17 34.7891 17C36.293 17 37.7148 17.3273 39 17.9545L35.8008 23.4364C35.4727 23.3273 35.1445 23.2727 34.7891 23.2727C33.1211 23.2727 31.7266 24.4182 31.3711 25.9727H25V26Z" fill="#16A3DB"/>
<path fill-rule="evenodd" clip-rule="evenodd" d="M27 26C27 25.8843 27 25.7975 27 25.7107C27 25.4793 27.0283 25.3058 27.0283 25.1901C27.255 22.9917 28.3314 21.0826 29.9178 19.7809C31.4759 18.4793 33.5439 17.814 35.6969 18.0454C35.8669 18.0743 36.0935 18.1032 36.4051 18.1611C36.6034 18.19 36.8017 18.2478 37 18.3057L35.5552 23.0785C35.5269 23.0785 35.4703 23.0496 35.4419 23.0496C35.4136 23.0496 35.3286 23.0206 35.1586 23.0206C34.3371 22.9339 33.5722 23.1942 32.9773 23.6859C32.3824 24.1777 31.9858 24.9008 31.9009 25.7107L31.8725 25.9132L27 26Z" fill="#16A3DB"/>
<defs>
<linearGradient id="paint0_linear_444_9" x1="1.57073" y1="24.0603" x2="66.6441" y2="23.899" gradientUnits="userSpaceOnUse">
<stop stop-color="#552383"/>
<stop offset="1" stop-color="#32B6B3"/>
</linearGradient>
</defs>
</svg>
