<svg width="129" height="86" viewBox="0 0 129 86" fill="none" xmlns="http://www.w3.org/2000/svg">
<path d="M64.156 74.7853C64.156 71.3462 66.9349 68.5906 70.4017 68.5906C73.8632 68.5906 76.6368 71.3462 76.6368 74.7853C76.6396 75.5999 76.4803 76.4069 76.168 77.1601C75.8558 77.9132 75.3967 78.5976 74.8172 79.1738C74.2377 79.75 73.5493 80.2067 72.7915 80.5176C72.0338 80.8285 71.2216 80.9875 70.4017 80.9854C69.5815 80.9889 68.7686 80.8312 68.0099 80.5212C67.2512 80.2113 66.5618 79.7553 65.9812 79.1795C65.4007 78.6037 64.9405 77.9195 64.6273 77.1663C64.314 76.413 64.1539 75.6003 64.156 74.7853ZM89.5475 74.7907C89.5475 71.3462 92.3264 68.5853 95.7879 68.5853C99.2494 68.5853 102.028 71.3462 102.028 74.7853C102.028 78.2245 99.2494 80.9854 95.7933 80.9854C94.973 80.9889 94.1601 80.8312 93.4014 80.5212C92.6427 80.2113 91.9533 79.7553 91.3727 79.1795C90.7922 78.6037 90.332 77.9195 90.0188 77.1663C89.7055 76.413 89.5454 75.6057 89.5475 74.7907ZM30.6913 74.7907C30.6913 71.3462 33.4701 68.5853 36.9316 68.5853C40.3931 68.5853 43.1666 71.3462 43.1666 74.7853C43.1666 78.2245 40.3931 80.9854 36.9316 80.9854C36.1118 80.9882 35.2995 80.8299 34.5414 80.5197C33.7834 80.2094 33.0946 79.7533 32.5146 79.1776C31.9346 78.6019 31.475 77.9179 31.162 77.165C30.8491 76.4121 30.6891 75.6052 30.6913 74.7907ZM5.29975 74.7907C5.29975 71.3462 8.07863 68.5853 11.5401 68.5853C15.0016 68.5853 17.7805 71.3462 17.7805 74.7853C17.7833 75.6003 17.6239 76.4078 17.3113 77.1613C16.9987 77.9148 16.5391 78.5994 15.9591 79.1757C15.379 79.752 14.69 80.2086 13.9316 80.5192C13.1732 80.8298 12.3604 80.9882 11.5401 80.9854C10.7207 80.9875 9.909 80.8287 9.15158 80.5182C8.39415 80.2076 7.70597 79.7514 7.12657 79.1757C6.54717 78.6001 6.08799 77.9163 5.7754 77.1638C5.46282 76.4112 5.29762 75.6048 5.29975 74.7907ZM56.6364 63.8324H51.2076V85.53H56.6364V63.8324ZM17.7375 85.53H23.1662V63.8324H17.7375V65.5733C15.8452 64.2649 13.593 63.5675 11.2875 63.5761C5.04175 63.5761 0 68.5852 0 74.7907C0 81.0281 5.04175 85.9999 11.2875 85.9999C13.6794 85.9999 15.8992 85.279 17.7375 84.0026V85.53ZM101.985 85.53H107.414V63.8324H101.985V65.5733C100.093 64.2649 97.8407 63.5675 95.5353 63.5761C89.2895 63.5761 84.2477 68.5852 84.2477 74.7907C84.2428 76.2645 84.5314 77.7248 85.0969 79.0873C85.6625 80.4499 86.4938 81.6878 87.543 82.7297C88.5922 83.7716 89.8386 84.597 91.2102 85.1583C92.5819 85.7195 94.0518 86.0056 95.5353 85.9999C97.9271 85.9999 100.147 85.279 101.985 84.0026V85.53ZM109.424 78.4808C109.596 82.8598 113.359 85.9572 119.637 85.9572C124.77 85.9572 129 83.7463 129 78.8653C129 75.4689 127.076 73.4716 122.631 72.6172L119.169 71.9443C116.944 71.5171 115.407 71.0898 115.407 69.7761C115.407 68.3343 116.901 67.6934 118.782 67.6934C121.523 67.6934 122.631 69.0552 122.717 70.668H128.188C127.887 66.4224 124.469 63.5761 118.954 63.5761C113.273 63.5761 109.892 66.6734 109.892 70.7107C109.892 75.6344 113.912 76.4408 117.374 77.0816L120.239 77.589C122.292 77.9735 123.19 78.5662 123.19 79.7571C123.19 80.8198 122.163 81.8772 119.723 81.8772C116.175 81.8772 115.025 80.0508 114.982 78.4808H109.424ZM43.129 56.4415V65.5733C41.2367 64.2649 38.9845 63.5675 36.679 63.5761C30.4332 63.5761 25.3915 68.5852 25.3915 74.7907C25.3915 81.0281 30.4332 85.9999 36.679 85.9999C39.0655 85.9999 41.2908 85.279 43.129 84.0026V85.53H48.5578V56.4415H43.129ZM76.5938 56.4415V65.5733C74.7014 64.2649 72.4492 63.5675 70.1438 63.5761C63.9034 63.5761 58.8562 68.5852 58.8562 74.7907C58.8513 76.2645 59.1399 77.7248 59.7054 79.0873C60.271 80.4499 61.1023 81.6878 62.1515 82.7297C63.2007 83.7716 64.4471 84.597 65.8187 85.1583C67.1904 85.7195 68.6603 86.0056 70.1438 85.9999C72.5356 85.9999 74.7555 85.279 76.5938 84.0026V85.53H82.0225V56.4415H76.5938ZM14.104 50.0331L17.7805 56.4415H43.129L33.0831 39.1977L14.1094 50.0278L14.104 50.0331ZM56.6364 61.8351V56.4415H76.5938L55.3087 19.8338L36.2866 30.6639L51.2076 56.4415V61.8351H56.6364ZM84.6777 56.4415H110.064L77.2387 0L58.2596 10.8728L84.6777 56.4415Z" fill="white"/>
</svg>
