<svg width="18" height="21" viewBox="0 0 18 21" fill="none" xmlns="http://www.w3.org/2000/svg">
<path d="M9 1.05153e-08C6.62856 -0.000110659 4.35291 0.873344 2.66765 2.43052C0.982384 3.9877 0.0237144 6.10275 0 8.31597C0 14.07 7.93125 20.4749 8.26875 20.7479C8.47252 20.9106 8.73185 21 9 21C9.26815 21 9.52748 20.9106 9.73125 20.7479C10.125 20.4749 18 14.07 18 8.31597C17.9763 6.10275 17.0176 3.9877 15.3324 2.43052C13.6471 0.873344 11.3714 -0.000110659 9 1.05153e-08ZM9 11.55C8.22124 11.55 7.45996 11.3344 6.81244 10.9306C6.16492 10.5268 5.66024 9.95285 5.36222 9.28133C5.0642 8.60982 4.98623 7.8709 5.13816 7.15802C5.29009 6.44514 5.6651 5.79032 6.21577 5.27637C6.76644 4.76241 7.46803 4.4124 8.23183 4.2706C8.99563 4.1288 9.78733 4.20158 10.5068 4.47973C11.2263 4.75788 11.8413 5.22891 12.2739 5.83326C12.7066 6.43761 12.9375 7.14813 12.9375 7.87497C12.9375 8.84964 12.5227 9.78439 11.7842 10.4736C11.0458 11.1628 10.0443 11.55 9 11.55V11.55Z" fill="#1AA6B6"/>
</svg>
