<svg width="22" height="23" viewBox="0 0 22 23" fill="none" xmlns="http://www.w3.org/2000/svg">
<path d="M10.75 17.25C10.9489 17.25 11.1397 17.171 11.2803 17.0303C11.421 16.8897 11.5 16.6989 11.5 16.5V10.5C11.5 10.3011 11.421 10.1103 11.2803 9.96967C11.1397 9.82902 10.9489 9.75 10.75 9.75C10.5511 9.75 10.3603 9.82902 10.2197 9.96967C10.079 10.1103 10 10.3011 10 10.5V16.5C10 16.914 10.336 17.25 10.75 17.25ZM10.75 6.5C11.0152 6.5 11.2696 6.60536 11.4571 6.79289C11.6446 6.98043 11.75 7.23478 11.75 7.5C11.75 7.76522 11.6446 8.01957 11.4571 8.20711C11.2696 8.39464 11.0152 8.5 10.75 8.5C10.4848 8.5 10.2304 8.39464 10.0429 8.20711C9.85536 8.01957 9.75 7.76522 9.75 7.5C9.75 7.23478 9.85536 6.98043 10.0429 6.79289C10.2304 6.60536 10.4848 6.5 10.75 6.5Z" fill="#B7ACC2"/>
<path fill-rule="evenodd" clip-rule="evenodd" d="M0 11.5C0 5.563 4.813 0.75 10.75 0.75C16.687 0.75 21.5 5.563 21.5 11.5C21.5 17.437 16.687 22.25 10.75 22.25C4.813 22.25 0 17.437 0 11.5ZM10.75 2.25C8.29675 2.25 5.94397 3.22455 4.20926 4.95926C2.47455 6.69397 1.5 9.04675 1.5 11.5C1.5 13.9533 2.47455 16.306 4.20926 18.0407C5.94397 19.7754 8.29675 20.75 10.75 20.75C13.2033 20.75 15.556 19.7754 17.2907 18.0407C19.0254 16.306 20 13.9533 20 11.5C20 9.04675 19.0254 6.69397 17.2907 4.95926C15.556 3.22455 13.2033 2.25 10.75 2.25Z" fill="#B7ACC2"/>
</svg>
