<svg width="156" height="82" viewBox="0 0 156 82" fill="none" xmlns="http://www.w3.org/2000/svg">
<path fill-rule="evenodd" clip-rule="evenodd" d="M79.122 0C79.7523 0.303623 80.3553 0.607246 80.9582 0.883266C81.5886 1.15929 82.1915 1.54572 82.7396 1.84934C83.3152 2.18056 83.8359 2.45658 84.3292 2.78781C85.3159 3.45026 86.1655 3.9471 86.8506 4.47154C88.221 5.49281 88.9884 6.07246 88.9884 6.07246C88.9884 6.07246 88.1662 5.71363 86.6862 5.10638C85.9736 4.80276 85.0692 4.52674 84.0552 4.16791C83.5618 4.0023 82.9863 3.86429 82.4382 3.72628C81.8626 3.58827 81.2597 3.39505 80.6293 3.28465C79.999 3.17424 79.3412 3.03623 78.6835 2.92582C77.9983 2.84301 77.3131 2.76021 76.6006 2.6774C75.888 2.6222 75.148 2.59459 74.408 2.53939C73.668 2.51179 72.9007 2.53939 72.1607 2.56699C71.3933 2.59459 70.6259 2.6774 69.8585 2.7326C69.0911 2.81541 68.2963 2.95342 67.5289 3.06383C67.0082 3.17424 66.5149 3.28465 65.9942 3.39505C65.912 3.45026 65.8023 3.50546 65.7201 3.53307C65.9394 3.56067 66.186 3.56067 66.4053 3.58827C67.1727 3.69868 67.8852 3.80909 68.5978 3.9471C69.3104 4.08511 69.9956 4.25072 70.6259 4.38873C71.2837 4.52674 71.8866 4.71995 72.4896 4.91317C73.0651 5.10638 73.6406 5.24439 74.1614 5.43761C75.2028 5.85164 76.1072 6.15526 76.8198 6.48649C78.2724 7.14894 79.0946 7.53537 79.0946 7.53537C79.0946 7.53537 78.245 7.39735 76.765 7.14894C76.025 7.03853 75.1206 6.98332 74.1065 6.87292C73.5858 6.81771 73.0377 6.84531 72.4896 6.81771C71.914 6.81771 71.3111 6.79011 70.7081 6.84531C70.0778 6.90052 69.4474 6.90052 68.7897 6.98332C68.1319 7.06613 67.4467 7.17654 66.7616 7.25934C66.0764 7.39735 65.3638 7.53537 64.6513 7.70098C63.9387 7.86659 63.2261 8.08741 62.4861 8.30822C61.7736 8.52904 61.0336 8.80506 60.2936 9.08108C59.5536 9.3847 58.841 9.68833 58.1011 10.0196C57.827 10.1576 57.5255 10.2956 57.2515 10.4336C57.4433 10.4336 57.6351 10.4336 57.7996 10.4612C58.4573 10.4612 59.0877 10.5164 59.6632 10.5992C60.2662 10.6544 60.8143 10.7096 61.335 10.7924C62.4039 10.9856 63.3083 11.1236 64.0483 11.2892C65.5557 11.6757 66.4053 11.8965 66.4053 11.8965C66.4053 11.8965 65.5557 11.9241 64.0757 11.9793C63.3357 12.0069 62.4587 12.1449 61.4447 12.2553C60.9514 12.3105 60.4032 12.4485 59.8551 12.5589C59.307 12.6694 58.704 12.7798 58.1285 12.9454C55.4426 13.7182 54.3464 14.6843 51.9072 16.2024C52.1812 16.1748 52.4279 16.1748 52.6745 16.1748C53.2775 16.1472 53.8256 16.1196 54.3464 16.1196C55.4152 16.1748 56.3196 16.1472 57.0596 16.23C58.567 16.3956 59.4166 16.506 59.4166 16.506C59.4166 16.506 58.5944 16.644 57.1418 16.9201C56.4293 17.0581 55.5522 17.3341 54.593 17.5825C54.0997 17.7205 53.6064 17.9137 53.0582 18.107C51.6605 18.9902 51.359 18.9626 48.4265 21.6952C48.6458 21.64 48.8376 21.5848 49.0569 21.5296C49.6872 21.3364 50.2902 21.226 50.8657 21.1156C51.4413 21.0052 51.9894 20.8672 52.4827 20.812C53.5242 20.7016 54.4012 20.5635 55.1686 20.5083C56.6485 20.4531 57.4981 20.3979 57.4981 20.3979C57.4981 20.3979 56.7033 20.674 55.3056 21.1708C54.6204 21.4192 53.7982 21.8332 52.8664 22.2197C52.4005 22.4405 51.9072 22.7165 51.4138 22.9925C50.8931 23.2685 50.3724 23.5446 49.8243 23.9034C49.2761 24.2622 48.728 24.5934 48.1525 24.9799C45.4118 27.6573 43.7948 30.3071 43 33.9781C56.5389 17.6653 84.3566 8.91547 102.829 22.1093C102.089 21.9988 100.855 21.778 100.143 21.916C99.6221 22.0265 98.9918 22.4957 98.6081 23.4066C96.9911 27.3537 93.3734 35.9379 82.5478 39.0569C76.0798 40.9063 69.5845 39.1121 64.8979 37.8148C58.5122 36.0483 54.7575 37.7044 48.1799 34.6406C51.085 37.5388 51.9346 38.1185 54.9219 39.0569C55.4974 39.1397 56.0456 39.1949 56.5937 39.2777C57.1418 39.3606 57.6352 39.3882 58.1285 39.4158C58.6218 39.4434 59.0877 39.471 59.5262 39.471C60.4032 39.4434 61.1706 39.471 61.801 39.4434C63.0617 39.3606 63.8016 39.3053 63.8016 39.3053C63.8016 39.3053 63.1165 39.5262 61.8832 39.9402C61.2802 40.1334 60.5129 40.299 59.6358 40.5474C59.1973 40.6578 58.7314 40.7407 58.2381 40.8235C57.7448 40.9339 57.2241 41.0167 56.6485 41.0719C56.4567 41.0995 56.2922 41.1271 56.1004 41.1547C57.0322 41.5963 57.3885 41.9551 59.3344 42.2036C59.8825 42.2036 60.3758 42.176 60.8691 42.1208C61.3625 42.0932 61.8284 42.0656 62.2669 42.0104C63.1439 41.8723 63.9113 41.7895 64.5142 41.6791C65.7749 41.4307 66.4875 41.2651 66.4875 41.2651C66.4875 41.2651 65.8297 41.5963 64.6513 42.1484C64.0757 42.4244 63.3357 42.7004 62.4861 43.0316C62.075 43.1972 61.6091 43.3353 61.1158 43.5009C60.8965 43.5837 60.7047 43.6389 60.4854 43.7217C62.7328 44.2737 62.3217 44.3841 64.8157 44.2185C65.3912 44.1633 65.9394 44.0805 66.4601 44.0253C67.0082 43.9701 67.5015 43.8597 67.9675 43.7769C68.4608 43.6665 68.8993 43.6113 69.3378 43.5009C70.1874 43.28 70.9274 43.0868 71.5577 42.8936C72.7636 42.4796 73.4762 42.2588 73.4762 42.2588C73.4762 42.2588 72.8458 42.6728 71.7496 43.3629C71.2014 43.7217 70.4889 44.0805 69.6941 44.5221C69.283 44.743 68.8445 44.9362 68.3786 45.157C67.9126 45.3778 67.4193 45.6262 66.8986 45.8194C66.7616 45.8746 66.5971 45.9298 66.4601 45.9851C66.7342 45.9851 67.0082 46.0127 67.2823 46.0127C67.9675 46.0127 68.6526 45.9851 69.3104 45.9851C69.9681 45.9298 70.6533 45.9022 71.3111 45.847C71.9688 45.7642 72.5992 45.709 73.2295 45.5986C73.8599 45.4882 74.4628 45.3778 75.0658 45.2398C75.6687 45.1018 76.2443 44.9362 76.7924 44.7982C77.3405 44.6325 77.8613 44.4669 78.382 44.3013C78.9027 44.1633 79.3686 43.9425 79.8345 43.7769C80.3004 43.5837 80.739 43.4457 81.1501 43.2524C81.9448 42.866 82.6574 42.5624 83.233 42.2588C84.3566 41.6515 85.0144 41.2927 85.0144 41.2927C85.0144 41.2927 84.4389 41.7895 83.4796 42.6728C82.9863 43.1144 82.3285 43.5837 81.616 44.1633C81.2597 44.4393 80.8486 44.7154 80.4101 45.019C79.9716 45.3226 79.5331 45.6262 79.0397 45.9298C78.5464 46.2335 78.0531 46.5371 77.505 46.8407C76.9568 47.1167 76.4087 47.4204 75.8332 47.724C75.6687 47.8068 75.4769 47.8896 75.3124 47.9724C75.3947 47.9724 75.4769 47.9724 75.5865 48C76.025 47.9172 76.4909 47.8344 76.9294 47.7516C77.5872 47.586 78.2724 47.448 78.9027 47.2547C79.5331 47.0615 80.1908 46.8959 80.8212 46.6751C81.4515 46.4543 82.0545 46.2611 82.6574 46.0127C83.233 45.7642 83.8359 45.5434 84.384 45.2674C84.9322 44.9914 85.4803 44.743 86.001 44.4669C86.5218 44.1909 87.0151 43.9149 87.481 43.6389C87.9743 43.3905 88.3854 43.0868 88.8239 42.8108C89.235 42.5348 89.6461 42.2864 90.0024 42.0104C90.715 41.4583 91.3727 41.0167 91.8661 40.6026C92.8801 39.747 93.4556 39.2777 93.4556 39.2777C93.4556 39.2777 92.9897 39.885 92.1675 40.9891C91.7564 41.5411 91.2083 42.1208 90.6054 42.866C90.3039 43.2248 89.9476 43.5837 89.5913 43.9701C89.235 44.3565 88.8513 44.7706 88.4128 45.157C88.0291 45.5158 87.618 45.9022 87.1795 46.2887C103.459 40.1886 103.267 15.7056 123 13.5526C121.904 12.973 120.807 12.3657 119.766 12.1173C118.807 11.8689 117.628 11.9793 117.025 12.0897C113.408 7.977 107.378 10.3508 102.938 11.7309L96.1689 7.977C95.6482 7.48016 95.0726 6.98332 94.4149 6.37608C93.7845 5.85164 93.1268 5.3272 92.469 4.80276C91.8112 4.27832 91.0987 3.80909 90.3861 3.28465C89.6735 2.78781 88.9335 2.34618 88.221 1.87694C87.9469 1.71133 87.6728 1.54572 87.3714 1.3801C84.5759 0.441633 81.8352 0 79.122 0Z" fill="url(#paint0_linear_0_15)"/>
<path fill-rule="evenodd" clip-rule="evenodd" d="M156 74.7433V61.1289C156 60.9946 155.89 60.8872 155.752 60.8872H149.503C149.091 60.8872 148.678 60.9141 148.32 60.9678C147.934 61.0215 147.604 61.102 147.274 61.2363C146.943 61.3437 146.668 61.478 146.393 61.6391C146.118 61.8002 145.87 61.9882 145.65 62.1762C145.429 62.391 145.237 62.6058 145.071 62.8475C144.906 63.0892 144.769 63.3308 144.659 63.5994V63.6262C144.548 63.8947 144.466 64.1901 144.411 64.4855C144.356 64.7809 144.328 65.1031 144.328 65.4253C144.328 65.9087 144.383 66.3383 144.493 66.768C144.603 67.1976 144.796 67.6004 145.016 67.9495C145.264 68.3255 145.539 68.6477 145.897 68.9162C146.173 69.131 146.503 69.319 146.861 69.4801L144.328 74.5822C144.301 74.609 144.301 74.6627 144.301 74.7164C144.301 74.8507 144.411 74.9581 144.548 74.9581H146.971C147.053 74.9581 147.164 74.9044 147.191 74.8238L149.614 69.9903H153.165V74.7164C153.165 74.8507 153.275 74.9581 153.412 74.9581H155.697C155.89 74.985 156 74.8776 156 74.7433ZM8.919 56H8.86395C8.17575 56 7.51509 56.0537 6.88195 56.188C6.24881 56.2954 5.6432 56.4834 5.09264 56.725C4.54209 56.9667 4.01906 57.2352 3.55108 57.5843C3.08311 57.9066 2.6702 58.3093 2.28481 58.739C1.89942 59.1686 1.56908 59.652 1.29381 60.1622C1.01853 60.6724 0.770778 61.2363 0.578084 61.8271C0.385389 62.4178 0.24775 63.0354 0.137639 63.7068C0.0275278 64.3512 0 65.0494 0 65.7476C0 66.4458 0.0550556 67.1171 0.137639 67.7884C0.24775 68.4329 0.385389 69.0505 0.578084 69.6681C0.770778 70.2589 1.01853 70.8228 1.29381 71.333C1.56908 71.8432 1.92695 72.3265 2.28481 72.7562C2.6702 73.1858 3.08311 73.5618 3.55108 73.9108C4.01906 74.2331 4.54209 74.5285 5.09264 74.7701C6.19375 75.2535 7.46003 75.4952 8.89148 75.4952C9.44203 75.4952 9.96506 75.4683 10.4606 75.3878C10.9561 75.3072 11.4516 75.1998 11.892 75.0655C12.36 74.9313 12.7729 74.7433 13.1858 74.5553C13.5987 74.3405 13.9841 74.1257 14.342 73.8571C14.6998 73.5886 15.0302 73.2932 15.333 72.971C15.6358 72.6488 15.9111 72.2997 16.1588 71.9237C16.4066 71.5478 16.6268 71.145 16.8195 70.7422C17.0122 70.3394 17.1773 69.8829 17.315 69.4533V69.4264C17.3425 69.2922 17.2599 69.1579 17.1223 69.131L14.7824 68.5403C14.6448 68.5134 14.5071 68.594 14.4796 68.7282C14.397 69.0505 14.2869 69.3459 14.1493 69.6412C14.0116 69.9366 13.874 70.2052 13.7088 70.4737C13.5437 70.7422 13.3785 70.9839 13.1583 71.1987C12.9656 71.4135 12.7454 71.6015 12.5251 71.7895C12.3049 71.9774 12.0572 72.1386 11.7819 72.2728C11.5066 72.4071 11.2313 72.5145 10.9285 72.6219C10.6257 72.7293 10.2954 72.783 9.96506 72.8367C9.63473 72.8904 9.27687 72.9173 8.89148 72.9173C8.39598 72.9173 7.928 72.8636 7.48756 72.783C7.04711 72.7025 6.66173 72.5682 6.27634 72.4071C5.91847 72.246 5.56061 72.0312 5.25781 71.7895C4.955 71.5478 4.67972 71.2793 4.43197 70.9839C4.18422 70.6885 3.964 70.3394 3.77131 69.9635C3.57861 69.5875 3.41345 69.1847 3.30333 68.7551C3.1657 68.3255 3.08311 67.869 3.00053 67.3856C2.94547 66.9023 2.91795 66.3921 2.91795 65.855C2.91795 65.3179 2.94547 64.8077 3.02806 64.3244C3.08311 63.841 3.19322 63.3845 3.33086 62.9549C3.4685 62.5252 3.63367 62.1224 3.79883 61.7465C3.99153 61.3706 4.21175 61.0483 4.4595 60.7261C4.70725 60.4307 4.98253 60.1622 5.28534 59.9205C5.58814 59.6788 5.946 59.4909 6.30386 59.3029C6.66173 59.1418 7.07464 59.0075 7.51509 58.927C7.95553 58.8464 8.39598 58.7927 8.919 58.7927C9.30439 58.7927 9.66226 58.8195 9.99259 58.8733C10.3229 58.927 10.6533 58.9807 10.9561 59.0881C11.2589 59.1955 11.5617 59.3029 11.8094 59.4372C12.0847 59.5714 12.3325 59.7325 12.5527 59.9205C12.7729 60.1085 12.9931 60.2965 13.1858 60.5113C13.3785 60.7261 13.5712 60.9678 13.7364 61.2363C13.9015 61.5048 14.0392 61.7734 14.1768 62.0687C14.3145 62.3641 14.397 62.6595 14.5071 62.9817V63.0086C14.5347 63.1429 14.6723 63.2234 14.81 63.1966L17.1498 62.5789C17.2875 62.5521 17.37 62.391 17.315 62.2567C17.1773 61.8002 17.0122 61.3706 16.8195 60.9409C16.6268 60.5113 16.4066 60.1353 16.1588 59.7594C15.9111 59.3835 15.6358 59.0344 15.333 58.7121C15.0302 58.3899 14.6998 58.0945 14.342 57.826C13.9841 57.5575 13.6263 57.3426 13.2133 57.1278C12.8004 56.913 12.3875 56.7519 11.9195 56.6176C11.4516 56.4834 10.9836 56.3759 10.4881 56.2954C9.96506 56.0269 9.46956 56 8.919 56ZM118.232 60.6992C117.736 60.8067 117.296 60.9946 116.883 61.2095H116.855C116.443 61.4511 116.085 61.7197 115.782 62.0419C115.672 62.1762 115.534 62.3104 115.424 62.4447V61.1557C115.424 61.0215 115.314 60.9141 115.176 60.9141H112.891C112.754 60.9141 112.644 61.0215 112.644 61.1557V80.7583C112.644 80.8926 112.754 81 112.891 81H115.176C115.314 81 115.424 80.8926 115.424 80.7583V73.4275C115.534 73.5618 115.644 73.696 115.782 73.8034C116.112 74.1257 116.47 74.3942 116.855 74.6359C117.654 75.0924 118.645 75.334 119.828 75.334C120.324 75.334 120.792 75.2803 121.26 75.1998C121.7 75.1192 122.141 74.9581 122.554 74.797C122.967 74.609 123.352 74.3942 123.682 74.1257C124.04 73.884 124.343 73.5886 124.646 73.2395C124.921 72.9173 125.196 72.5414 125.417 72.1386C125.637 71.7626 125.83 71.333 125.967 70.8765C126.27 69.9635 126.435 68.9699 126.435 67.869C126.435 67.3319 126.408 66.8217 126.325 66.3383C126.242 65.855 126.132 65.3716 125.967 64.9151C125.802 64.4586 125.637 64.0559 125.417 63.6531C125.196 63.2771 124.949 62.9012 124.673 62.5789C124.398 62.2567 124.068 61.9613 123.71 61.6928C123.38 61.4511 122.994 61.2095 122.581 61.0483C122.168 60.8604 121.728 60.7261 121.287 60.6455C120.819 60.565 120.352 60.5113 119.856 60.5113C119.278 60.5381 118.727 60.5918 118.232 60.6992ZM118.507 72.6488C118.204 72.5951 117.957 72.5145 117.709 72.4071C117.461 72.2997 117.241 72.1654 117.021 72.0043C116.828 71.8432 116.635 71.6821 116.47 71.4672V71.4404C116.305 71.2256 116.167 71.0107 116.03 70.7691C115.892 70.5274 115.782 70.232 115.699 69.9366C115.617 69.6412 115.534 69.319 115.507 68.9968C115.452 68.6745 115.452 68.3255 115.452 67.9495C115.452 67.5736 115.479 67.2513 115.507 66.9023C115.562 66.58 115.617 66.2846 115.699 65.9893V65.9624C115.782 65.667 115.892 65.3985 116.002 65.1568C116.112 64.9151 116.277 64.6735 116.443 64.4855C116.608 64.2707 116.8 64.1096 116.993 63.9484C117.186 63.7873 117.434 63.6531 117.681 63.5456C117.929 63.4382 118.204 63.3577 118.48 63.2771C118.782 63.2234 119.113 63.1966 119.443 63.1966C119.773 63.1966 120.104 63.2234 120.407 63.2771C120.709 63.3308 120.957 63.4114 121.205 63.5188C121.453 63.6262 121.673 63.7605 121.893 63.9216C122.086 64.0827 122.278 64.2438 122.444 64.4586C122.609 64.6735 122.746 64.8883 122.884 65.13C123.022 65.3716 123.132 65.6402 123.214 65.9356C123.297 66.2309 123.38 66.5532 123.407 66.8754C123.462 67.1976 123.462 67.5467 123.462 67.9227C123.462 68.2986 123.435 68.6477 123.407 68.9699C123.352 69.2922 123.297 69.6144 123.214 69.9098C123.132 70.2052 123.022 70.4737 122.912 70.7154C122.774 70.957 122.636 71.1987 122.471 71.4135C122.306 71.6284 122.113 71.7895 121.921 71.9506C121.7 72.1117 121.48 72.246 121.232 72.3534C120.985 72.4608 120.737 72.5414 120.434 72.5951H120.407C120.104 72.6488 119.801 72.6756 119.443 72.6756C119.14 72.7293 118.81 72.7025 118.507 72.6488ZM101.22 60.6724C100.752 60.753 100.284 60.8872 99.8708 61.0752H99.8433C99.4028 61.2632 99.0175 61.478 98.6596 61.7197C98.3017 61.9882 97.9439 62.2567 97.6411 62.6058C97.3383 62.928 97.063 63.304 96.8428 63.6799C96.6225 64.0827 96.4023 64.4855 96.2647 64.942C96.0995 65.3985 95.9894 65.8818 95.9068 66.3652C95.8242 66.8754 95.7967 67.3856 95.7967 67.9227C95.7967 68.4597 95.8242 68.9699 95.9068 69.4801C95.9894 69.9903 96.0995 70.4468 96.2647 70.9033C96.4298 71.3598 96.6225 71.7895 96.8428 72.1654C97.063 72.5682 97.3383 72.9173 97.6411 73.2395C97.9439 73.5618 98.2742 73.8571 98.6596 74.1257C99.0175 74.3673 99.4304 74.609 99.8708 74.797C100.311 74.985 100.752 75.1192 101.247 75.1998C101.743 75.2803 102.238 75.334 102.761 75.334C103.284 75.334 103.807 75.2803 104.275 75.1998C104.743 75.1192 105.211 74.985 105.624 74.797C106.477 74.4479 107.221 73.9109 107.826 73.2664C108.129 72.9441 108.404 72.5682 108.625 72.1923C108.845 71.7895 109.065 71.3867 109.203 70.9302C109.368 70.4737 109.478 69.9903 109.561 69.507C109.643 68.9968 109.671 68.4866 109.671 67.9495C109.671 67.4125 109.643 66.9023 109.561 66.3921C109.478 65.8818 109.368 65.4253 109.203 64.9688C109.038 64.5124 108.845 64.1096 108.625 63.7068C108.404 63.304 108.129 62.9549 107.826 62.6327C107.524 62.3104 107.193 62.015 106.808 61.7465C106.45 61.478 106.037 61.2632 105.597 61.102C105.156 60.9141 104.716 60.7798 104.22 60.6992C103.725 60.6187 103.229 60.565 102.706 60.565C102.211 60.5381 101.715 60.565 101.22 60.6724ZM101.825 72.6488C101.55 72.5951 101.275 72.5145 101.055 72.4071H101.027C100.779 72.2997 100.559 72.1654 100.366 72.0043C100.174 71.8432 99.9809 71.6821 99.8158 71.4672C99.6506 71.2524 99.4854 71.0376 99.3753 70.7959C99.2377 70.5542 99.1276 70.2589 99.045 69.9903C98.9624 69.695 98.8798 69.3727 98.8523 69.0505C98.7972 68.7282 98.7972 68.3523 98.7972 67.9764C98.7972 67.6004 98.8248 67.2513 98.8523 66.9023C98.9074 66.58 98.9624 66.2578 99.045 65.9624C99.1276 65.667 99.2377 65.3985 99.3753 65.1568C99.513 64.9151 99.6506 64.6735 99.8158 64.4855C99.9809 64.2707 100.174 64.1096 100.366 63.9484C100.559 63.7873 100.779 63.6531 101.027 63.5456C101.522 63.3308 102.101 63.2234 102.789 63.2234C103.119 63.2234 103.422 63.2503 103.725 63.304C104 63.3577 104.275 63.4382 104.495 63.5456H104.523C104.771 63.6531 104.991 63.7873 105.211 63.9484C105.404 64.1096 105.597 64.2707 105.762 64.4855C105.927 64.7003 106.092 64.9151 106.202 65.1568C106.34 65.3985 106.45 65.667 106.533 65.9624C106.615 66.2578 106.698 66.58 106.725 66.9023C106.78 67.2245 106.78 67.6004 106.78 67.9764C106.78 68.3523 106.753 68.7014 106.725 69.0236C106.67 69.3459 106.615 69.6681 106.533 69.9635C106.45 70.2589 106.34 70.5274 106.202 70.7959C106.065 71.0376 105.927 71.2793 105.762 71.4672C105.597 71.6821 105.404 71.8432 105.211 72.0043C104.991 72.1654 104.771 72.2997 104.523 72.4071C104.275 72.5145 104 72.5951 103.725 72.6488C103.422 72.7025 103.119 72.7293 102.789 72.7293C102.403 72.7293 102.101 72.7025 101.825 72.6488ZM86.6575 60.5918C86.3272 60.6187 85.9968 60.6724 85.694 60.753C85.3637 60.8335 85.0609 60.9141 84.7856 61.0483C84.5103 61.1557 84.235 61.3169 83.9598 61.478C83.6845 61.6391 83.4367 61.8271 83.2165 62.0687C82.9688 62.2836 82.7761 62.5252 82.5834 62.8206C82.3907 63.0892 82.2255 63.3845 82.0603 63.7336C81.9227 64.0559 81.7851 64.4318 81.7025 64.8077V64.8346C81.675 64.9688 81.7575 65.1031 81.9227 65.13L84.0974 65.5059C84.235 65.5328 84.3727 65.4522 84.4002 65.3179C84.4553 65.1568 84.5103 64.9689 84.5654 64.8077C84.6204 64.6466 84.703 64.5124 84.7856 64.3512C84.8682 64.217 84.9783 64.0827 85.0609 63.9753C85.171 63.8679 85.2811 63.7605 85.4187 63.6531C85.5564 63.5725 85.694 63.4651 85.8316 63.4114C85.9968 63.3308 86.162 63.2771 86.3547 63.2234C86.5474 63.1697 86.7401 63.1429 86.9603 63.116C87.1805 63.0892 87.4283 63.0892 87.676 63.0892C88.1715 63.0892 88.5844 63.1429 88.9423 63.2234C89.3002 63.304 89.5754 63.4382 89.8232 63.6262C90.2912 63.9753 90.5114 64.4586 90.5114 65.0763C90.5114 65.3448 90.4563 65.5596 90.3737 65.7476C90.2912 65.9356 90.1535 66.0698 89.9883 66.2041C89.7957 66.3383 89.5754 66.4458 89.3002 66.4995C89.0249 66.58 88.6945 66.6069 88.3367 66.6069H86.1345C85.9968 66.6069 85.8867 66.7143 85.8867 66.8485V68.7014C85.8867 68.8357 85.9968 68.9431 86.1345 68.9431H88.2816C88.4743 68.9431 88.667 68.9431 88.8322 68.9699C88.9973 68.9968 89.19 69.0236 89.3277 69.0505C89.4928 69.0773 89.6305 69.131 89.7406 69.1847C89.8782 69.2385 89.9883 69.2922 90.0985 69.3727C90.2086 69.4533 90.2912 69.5338 90.3737 69.6144C90.4563 69.695 90.5389 69.8024 90.594 69.9098V69.9366C90.649 70.044 90.7041 70.1783 90.7316 70.3126C90.7591 70.4468 90.7867 70.6079 90.7867 70.7959C90.7867 71.1182 90.7316 71.3867 90.594 71.6284C90.4563 71.87 90.2636 72.0849 90.0159 72.2728C89.7406 72.4608 89.4103 72.5951 89.0249 72.7025C88.612 72.8099 88.144 72.8367 87.5934 72.8367C87.0704 72.8367 86.6024 72.783 86.217 72.6756C85.8316 72.5682 85.4738 72.4071 85.171 72.1923C84.8682 71.9774 84.648 71.7089 84.4553 71.3867C84.2626 71.0644 84.1525 70.6617 84.0699 70.232C84.0423 70.0977 83.9047 70.0172 83.7671 70.0172L81.5648 70.42C81.4272 70.4468 81.3446 70.5811 81.3446 70.7154C81.4272 71.1182 81.5098 71.4672 81.6474 71.8163C81.7851 72.1654 81.9227 72.4876 82.1154 72.783C82.2806 73.0784 82.5008 73.3469 82.721 73.5886C82.9412 73.8303 83.189 74.0451 83.4643 74.2331C83.7395 74.4211 84.0148 74.5822 84.3452 74.7433C84.648 74.8776 85.0058 75.0118 85.3362 75.0924C85.694 75.1729 86.0519 75.2535 86.4373 75.3072C86.8227 75.3609 87.208 75.3878 87.621 75.3878C88.0889 75.3878 88.5018 75.3609 88.9148 75.3072C89.3277 75.2535 89.7131 75.1729 90.0709 75.0655C90.4288 74.9581 90.7867 74.8238 91.0895 74.6627C91.3923 74.5016 91.6675 74.3405 91.9428 74.1525H91.9704C92.2181 73.9646 92.4659 73.7229 92.6585 73.4812C92.8512 73.2395 93.0164 72.971 93.154 72.7025C93.2917 72.4339 93.4018 72.1386 93.4569 71.8163C93.5119 71.5209 93.567 71.1987 93.567 70.8496C93.567 70.6348 93.5394 70.4468 93.5119 70.232C93.4844 70.044 93.4293 69.8561 93.3743 69.6681C93.3192 69.4801 93.2366 69.319 93.154 69.1579C93.0715 68.9968 92.9613 68.8357 92.8788 68.7014C92.7687 68.5671 92.6585 68.4329 92.5209 68.2986C92.4108 68.1912 92.2732 68.0569 92.1355 67.9495C91.9979 67.8421 91.8602 67.7615 91.7226 67.7078C91.8327 67.6273 91.9428 67.5467 92.0529 67.4662C92.3007 67.2782 92.5209 67.0365 92.6861 66.7948C93.0164 66.2846 93.1816 65.667 93.1816 64.9151C93.1816 64.5929 93.154 64.2707 93.099 63.9484C93.0439 63.6531 92.9338 63.3577 92.8237 63.0892C92.6861 62.8206 92.5484 62.5789 92.3557 62.3373C92.163 62.0956 91.9428 61.8808 91.7226 61.6928C91.4748 61.5048 91.2271 61.3437 90.9243 61.2095H90.8968C90.594 61.0752 90.2912 60.9409 89.9333 60.8604C89.603 60.753 89.2176 60.6992 88.8322 60.6455C88.4468 60.5918 88.0339 60.565 87.5934 60.565C87.3457 60.5381 87.0153 60.5381 86.6575 60.5918ZM41.6771 60.6992C41.1816 60.8067 40.7411 60.9946 40.3282 61.2095C39.9153 61.4511 39.5574 61.7197 39.2546 62.0419C39.1445 62.1762 39.0069 62.3104 38.8968 62.4447V61.1557C38.8968 61.0215 38.7867 60.9141 38.649 60.9141H36.3642C36.2266 60.9141 36.1165 61.0215 36.1165 61.1557V80.7583C36.1165 80.8926 36.2266 81 36.3642 81H38.649C38.7867 81 38.8968 80.8926 38.8968 80.7583V73.4275C39.0069 73.5618 39.117 73.696 39.2546 73.8034C39.585 74.1257 39.9428 74.3942 40.3282 74.6359C41.1265 75.0924 42.1175 75.334 43.3012 75.334C43.7967 75.334 44.2647 75.2803 44.7327 75.1998C45.1731 75.1192 45.6135 74.9581 46.0265 74.797C46.4394 74.609 46.8248 74.3942 47.1551 74.1257C47.513 73.884 47.8158 73.5886 48.1186 73.2395C48.3939 72.9173 48.6691 72.5414 48.8894 72.1386C49.1096 71.7626 49.3023 71.333 49.4399 70.8765C49.7427 69.9635 49.9079 68.9699 49.9079 67.869C49.9079 67.3319 49.8804 66.8217 49.7978 66.3383C49.7152 65.855 49.6051 65.3716 49.4399 64.9151C49.2747 64.4586 49.1096 64.0559 48.8894 63.6531C48.6691 63.2771 48.4214 62.9012 48.1461 62.5789C47.8708 62.2567 47.5405 61.9613 47.1826 61.6928C46.8523 61.4511 46.4669 61.2095 46.054 61.0483C45.6411 60.8604 45.2006 60.7261 44.7602 60.6455C44.2922 60.565 43.8242 60.5113 43.3287 60.5113C42.7231 60.5381 42.1726 60.5918 41.6771 60.6992ZM41.9524 72.6488C41.6495 72.5951 41.4018 72.5145 41.154 72.4071C40.9063 72.2997 40.6861 72.1654 40.4659 72.0043C40.2732 71.8432 40.0805 71.6821 39.9153 71.4672V71.4404C39.7501 71.2256 39.6125 71.0107 39.4749 70.7691C39.3372 70.5274 39.2271 70.232 39.1445 69.9366C39.0619 69.6412 38.9794 69.319 38.9518 68.9968C38.8968 68.6745 38.8968 68.3255 38.8968 67.9495C38.8968 67.5736 38.9243 67.2513 38.9518 66.9023C38.9794 66.58 39.0619 66.2846 39.117 65.9893V65.9624C39.1996 65.667 39.3097 65.3985 39.4198 65.1568C39.5299 64.9151 39.6951 64.6735 39.8602 64.4855C40.0254 64.2707 40.2181 64.1096 40.4108 63.9484C40.6035 63.7873 40.8512 63.6531 41.099 63.5456C41.3467 63.4382 41.622 63.3577 41.8973 63.2771C42.2001 63.2234 42.5304 63.1966 42.8608 63.1966C43.1911 63.1966 43.5214 63.2234 43.8242 63.2771C44.127 63.3308 44.3748 63.4114 44.6225 63.5188C44.8703 63.6262 45.0905 63.7605 45.3107 63.9216C45.5034 64.0827 45.6961 64.2438 45.8613 64.4586C46.0265 64.6735 46.1641 64.8883 46.3017 65.13C46.4394 65.3716 46.5495 65.6402 46.6321 65.9356C46.7147 66.2309 46.7972 66.5532 46.8248 66.8754C46.8798 67.1976 46.8798 67.5467 46.8798 67.9227C46.8798 68.2986 46.8523 68.6477 46.8248 68.9699C46.7697 69.2922 46.7147 69.6144 46.6321 69.9098C46.5495 70.2052 46.4394 70.4737 46.3293 70.7154C46.1916 70.957 46.054 71.1987 45.8888 71.4135C45.7237 71.6284 45.531 71.7895 45.3383 71.9506C45.118 72.1117 44.8978 72.246 44.6501 72.3534C44.4023 72.4608 44.1546 72.5414 43.8518 72.5951H43.8242C43.5214 72.6488 43.2186 72.6756 42.8608 72.6756C42.5855 72.7293 42.2552 72.7025 41.9524 72.6488ZM24.9402 60.6455C24.4722 60.7261 24.0042 60.8604 23.5913 61.0483C23.1509 61.2363 22.7655 61.4511 22.4076 61.6928C22.0498 61.9345 21.6919 62.2299 21.3891 62.5521C21.0863 62.8743 20.811 63.2234 20.5633 63.6262C20.3155 64.029 20.1228 64.4318 19.9576 64.8883C19.6273 65.8013 19.4621 66.8217 19.4621 67.9227C19.4621 68.4597 19.5172 68.9968 19.5998 69.507C19.6824 70.0172 19.82 70.5005 19.9852 70.957C20.1503 71.4135 20.343 71.8432 20.5908 72.2191C20.8385 72.6219 21.0863 72.971 21.4166 73.2932C21.7194 73.6155 22.0498 73.9108 22.4351 74.1525C22.793 74.3942 23.2059 74.609 23.6464 74.797C24.0868 74.985 24.5273 75.1192 25.0228 75.1998C25.4907 75.2803 26.0138 75.334 26.5093 75.334C27.2525 75.334 27.9407 75.2535 28.5738 75.0924C29.2345 74.9313 29.8126 74.6627 30.3632 74.3136C30.9137 73.9646 31.4092 73.5618 31.8221 73.0784C32.235 72.5951 32.5929 72.0312 32.8682 71.4135L32.8957 71.3867C32.9508 71.2524 32.8682 71.1182 32.7305 71.0644L30.5008 70.3394C30.3907 70.3126 30.253 70.3663 30.198 70.4737C30.0053 70.8496 29.8126 71.1719 29.5648 71.4404C29.3171 71.7089 29.0693 71.9506 28.7665 72.1386C28.4637 72.3265 28.1334 72.4608 27.7755 72.5682C27.3902 72.6756 26.9772 72.7025 26.5093 72.7025C26.2065 72.7025 25.9312 72.6756 25.6559 72.6219C25.3806 72.5682 25.1329 72.5145 24.9127 72.4071C24.6649 72.3265 24.4447 72.1923 24.252 72.058C24.0593 71.9237 23.8666 71.7626 23.7014 71.6015C23.5363 71.4135 23.3711 71.2256 23.2335 71.0107C23.0958 70.7959 22.9857 70.5542 22.8756 70.3126V70.2857C22.7655 70.0172 22.6829 69.7487 22.6278 69.4533C22.5728 69.2385 22.5453 68.9968 22.5177 68.7551H32.8957C33.0333 68.7551 33.1435 68.6477 33.1435 68.5134C33.171 67.8958 33.1435 67.305 33.1159 66.768C33.0609 66.2041 32.9783 65.6939 32.8407 65.1837C32.703 64.6735 32.5378 64.217 32.3176 63.8142C32.0974 63.3845 31.8497 63.0086 31.5744 62.6595C31.2716 62.3104 30.9688 61.9882 30.6109 61.7197C30.253 61.4511 29.8677 61.2095 29.4272 61.0215C28.9868 60.8335 28.5463 60.6992 28.0508 60.5918C27.5553 60.5113 27.0323 60.4576 26.4817 60.4576C25.9312 60.5381 25.4357 60.565 24.9402 60.6455ZM22.9582 65.1837C23.1784 64.7272 23.4537 64.3244 23.784 64.0021C24.1143 63.6799 24.4997 63.4382 24.9402 63.2771C25.3806 63.116 25.9037 63.0354 26.4542 63.0354C27.0323 63.0354 27.5278 63.116 27.9682 63.2771C28.4087 63.4382 28.7665 63.6531 29.0969 63.9753C29.4272 64.2975 29.675 64.6735 29.8677 65.13C30.0328 65.5328 30.1429 65.9624 30.198 66.4726H22.5453C22.6278 66.0161 22.7655 65.5865 22.9582 65.1837ZM149.146 67.5467C148.953 67.5199 148.76 67.4662 148.595 67.4125C148.43 67.3588 148.265 67.2782 148.127 67.2245C147.989 67.1439 147.879 67.0634 147.769 66.9828C147.659 66.8754 147.577 66.7948 147.494 66.6874C147.411 66.58 147.356 66.4458 147.301 66.3383C147.246 66.2041 147.219 66.0698 147.191 65.9356C147.164 65.8013 147.164 65.6402 147.164 65.4791C147.164 65.3179 147.164 65.1837 147.191 65.0226C147.219 64.8883 147.246 64.754 147.301 64.6198C147.356 64.4855 147.411 64.3781 147.494 64.2707C147.577 64.1633 147.659 64.0559 147.769 63.9753C147.879 63.8679 147.989 63.7873 148.127 63.7336C148.265 63.6531 148.402 63.5994 148.595 63.5456C148.76 63.4919 148.953 63.4382 149.146 63.4114C149.338 63.3845 149.558 63.3577 149.806 63.3577H153.192V67.6541H149.806C149.586 67.6004 149.366 67.5736 149.146 67.5467ZM138.713 60.9141C138.63 60.9141 138.547 60.9409 138.492 61.0215L132.161 70.3931V61.1557C132.161 61.0215 132.051 60.9141 131.913 60.9141H129.628C129.491 60.9141 129.381 61.0215 129.381 61.1557V74.7433C129.381 74.8776 129.491 74.985 129.628 74.985H131.913C131.996 74.985 132.078 74.9581 132.133 74.8776L138.465 65.5059V74.7433C138.465 74.8776 138.575 74.985 138.713 74.985H140.997C141.135 74.985 141.245 74.8776 141.245 74.7433V61.1557C141.245 61.0215 141.135 60.9141 140.997 60.9141H138.713ZM76.307 60.9141C76.2244 60.9141 76.1419 60.9409 76.0868 61.0215L69.7554 70.3931V61.1557C69.7554 61.0215 69.6453 60.9141 69.5077 60.9141H67.2229C67.0852 60.9141 66.9751 61.0215 66.9751 61.1557V74.7433C66.9751 74.8776 67.0852 74.985 67.2229 74.985H69.5077C69.5903 74.985 69.6728 74.9581 69.7279 74.8776L76.0593 65.5059V74.7433C76.0593 74.8776 76.1694 74.985 76.307 74.985H78.5918C78.7295 74.985 78.8396 74.8776 78.8396 74.7433V61.1557C78.8396 61.0215 78.7295 60.9141 78.5918 60.9141H76.307ZM53.0736 60.9141C52.9359 60.9141 52.8258 61.0215 52.8258 61.1557V74.7433C52.8258 74.8776 52.9359 74.985 53.0736 74.985H58.8819C59.7628 74.985 60.5061 74.9044 61.1668 74.7433C61.8549 74.5822 62.4055 74.3136 62.8735 73.9914C63.3414 73.6423 63.6993 73.2127 63.9471 72.7293C64.1948 72.2191 64.3049 71.6552 64.3049 71.0107C64.3049 70.7959 64.2774 70.5811 64.2499 70.3663C64.2223 70.1514 64.1673 69.9635 64.1122 69.7755C64.0572 69.5875 63.9746 69.3996 63.892 69.2385C63.8094 69.0773 63.6993 68.8894 63.5892 68.7551C63.4791 68.594 63.3414 68.4597 63.2313 68.3255C63.0937 68.1912 62.9561 68.0838 62.7909 67.9764C62.6533 67.8958 62.5156 67.7884 62.3504 67.7347C62.4606 67.681 62.5431 67.6004 62.6533 67.5467C62.901 67.3588 63.1212 67.1439 63.3139 66.8754C63.5066 66.6069 63.6443 66.3115 63.7544 65.9624C63.8369 65.6402 63.892 65.2642 63.892 64.8614C63.892 64.217 63.7819 63.6531 63.5617 63.1697C63.3414 62.6864 62.9836 62.2567 62.5156 61.9345C62.0752 61.6122 61.4971 61.3706 60.8639 61.2095C60.2308 61.0483 59.4876 60.9678 58.6342 60.9678H53.0736V60.9141ZM55.496 63.2771H58.6342C59.1022 63.2771 59.5151 63.304 59.8454 63.3845C60.1482 63.4651 60.4235 63.5456 60.6162 63.6799C60.7814 63.8142 60.919 63.9753 61.0291 64.1633C61.1392 64.3781 61.1668 64.6735 61.1668 64.9957C61.1668 65.1568 61.1667 65.2911 61.1392 65.3985C61.1117 65.5059 61.0842 65.6402 61.0291 65.7207C60.9741 65.8281 60.919 65.9087 60.8639 65.9893C60.8089 66.0698 60.7263 66.1504 60.6162 66.2041C60.5336 66.2846 60.4235 66.3383 60.3134 66.3652C60.2033 66.4189 60.0656 66.4458 59.9555 66.4995C59.8179 66.5263 59.6803 66.5532 59.5151 66.58C59.3774 66.6069 59.2123 66.6069 59.0471 66.6069H55.5236V63.2771H55.496ZM55.496 68.9699H59.2673C59.4325 68.9699 59.5977 68.9699 59.7628 68.9968C59.928 69.0236 60.0656 69.0505 60.2308 69.0773C60.3684 69.1042 60.5061 69.1579 60.6162 69.2116C60.7263 69.2653 60.8364 69.319 60.9465 69.3996C61.0566 69.4801 61.1392 69.5607 61.2218 69.6412C61.3044 69.7218 61.3594 69.8292 61.4145 69.9366C61.4696 70.044 61.5246 70.1783 61.5521 70.3126C61.5797 70.4468 61.6072 70.6079 61.6072 70.7959C61.6072 71.1182 61.5521 71.3867 61.442 71.6284C61.3319 71.8432 61.1668 72.0312 60.9741 72.1654C60.7538 72.2997 60.451 72.4071 60.1207 72.4877C59.7628 72.5682 59.3499 72.5951 58.8819 72.5951H55.5236V68.9699H55.496Z" fill="url(#paint1_linear_0_15)"/>
<path fill-rule="evenodd" clip-rule="evenodd" d="M82 36.0455C80.7148 36.6455 79.293 37 77.7891 37C72.6211 37 68.4102 33.0455 68 28H74.3711C74.7266 29.5545 76.1211 30.7 77.7891 30.7C78.1445 30.7 78.4727 30.6455 78.8008 30.5636L82 36.0455Z" fill="#32B6B3"/>
<path fill-rule="evenodd" clip-rule="evenodd" d="M83.011 19C85.4301 20.7627 87 23.6915 87 27C87 30.3085 85.4301 33.2644 83.011 35L80 29.522C80.6434 28.8983 81.0551 27.9763 81.0551 26.9729C81.0551 25.9695 80.6434 25.0746 80 24.4237L83.011 19Z" fill="#552383"/>
<path fill-rule="evenodd" clip-rule="evenodd" d="M68 26C68.4102 20.9545 72.6211 17 77.7891 17C79.293 17 80.7148 17.3273 82 17.9545L78.8008 23.4364C78.4727 23.3273 78.1445 23.2727 77.7891 23.2727C76.1211 23.2727 74.7266 24.4182 74.3711 25.9727H68V26Z" fill="#16A3DB"/>
<path fill-rule="evenodd" clip-rule="evenodd" d="M70 26C70 25.8843 70 25.7975 70 25.7107C70 25.4793 70.0283 25.3058 70.0283 25.1901C70.255 22.9917 71.3314 21.0826 72.9178 19.7809C74.4759 18.4793 76.5439 17.814 78.6969 18.0454C78.8669 18.0743 79.0935 18.1032 79.4051 18.1611C79.6034 18.19 79.8017 18.2478 80 18.3057L78.5552 23.0785C78.5269 23.0785 78.4703 23.0496 78.4419 23.0496C78.4136 23.0496 78.3286 23.0206 78.1586 23.0206C77.3371 22.9339 76.5722 23.1942 75.9773 23.6859C75.3824 24.1777 74.9858 24.9008 74.9009 25.7107L74.8725 25.9132L70 26Z" fill="#16A3DB"/>
<defs>
<linearGradient id="paint0_linear_0_15" x1="44.5707" y1="24.0603" x2="109.644" y2="23.899" gradientUnits="userSpaceOnUse">
<stop stop-color="#552383"/>
<stop offset="1" stop-color="#32B6B3"/>
</linearGradient>
<linearGradient id="paint1_linear_0_15" x1="2.93716" y1="68.5111" x2="163.201" y2="68.5111" gradientUnits="userSpaceOnUse">
<stop stop-color="#552383"/>
<stop offset="1" stop-color="#32B6B3"/>
</linearGradient>
</defs>
</svg>
