<svg width="197" height="393" viewBox="0 0 197 393" fill="none" xmlns="http://www.w3.org/2000/svg">
<path d="M196.073 0C144.071 -6.20109e-07 94.2 20.6574 57.4295 57.4279C20.659 94.1984 0.00159146 144.07 0.00158691 196.071C0.00158237 248.072 20.659 297.944 57.4295 334.714C94.1999 371.485 144.071 392.142 196.073 392.142L196.073 268.657C176.822 268.657 158.359 261.01 144.747 247.397C131.134 233.785 123.487 215.322 123.487 196.071C123.487 176.82 131.134 158.358 144.747 144.745C158.359 131.133 176.822 123.485 196.073 123.485L196.073 0Z" fill="url(#paint0_linear_0_449)" fill-opacity="0.8"/>
<defs>
<linearGradient id="paint0_linear_0_449" x1="196.073" y1="0" x2="196.484" y2="501.482" gradientUnits="userSpaceOnUse">
<stop offset="0.0864582" stop-color="#04B8FF"/>
<stop offset="1" stop-color="#33DCD8" stop-opacity="0.53"/>
</linearGradient>
</defs>
</svg>
