<svg width="1343" height="798" viewBox="0 0 1343 798" fill="none" xmlns="http://www.w3.org/2000/svg">
<path fill-rule="evenodd" clip-rule="evenodd" d="M606.857 0C617.439 5.04773 627.562 10.0955 637.683 14.6843C648.266 19.2731 658.387 25.6975 667.589 30.7453C677.251 36.2519 685.993 40.8407 694.274 46.3473C710.838 57.3606 725.1 65.6205 736.603 74.3393C759.607 91.318 772.49 100.955 772.49 100.955C772.49 100.955 758.687 94.9891 733.842 84.8936C721.88 79.8459 706.697 75.257 689.673 69.2916C681.392 66.5382 671.73 64.2438 662.528 61.9494C652.866 59.655 642.744 56.4428 632.162 54.6072C621.58 52.7717 610.538 50.4773 599.496 48.6418C587.994 47.2651 576.492 45.8884 564.529 44.5118C552.567 43.594 540.145 43.1351 527.722 42.2174C515.3 41.7585 502.417 42.2174 489.995 42.6763C477.112 43.1351 464.23 44.5118 451.347 45.4296C438.465 46.8062 425.122 49.1006 412.24 50.9362C403.498 52.7717 395.217 54.6072 386.475 56.4428C385.095 57.3606 383.254 58.2783 381.874 58.7372C385.555 59.1961 389.695 59.1961 393.376 59.655C406.259 61.4905 418.221 63.3261 430.183 65.6205C442.146 67.9149 453.648 70.6682 464.23 72.9626C475.272 75.257 485.394 78.4692 495.516 81.6814C505.178 84.8936 514.84 87.188 523.581 90.4002C541.065 97.2835 556.248 102.331 568.21 107.838C592.595 118.851 606.397 125.275 606.397 125.275C606.397 125.275 592.135 122.981 567.29 118.851C554.867 117.016 539.684 116.098 522.661 114.262C513.919 113.344 504.718 113.803 495.516 113.344C485.854 113.344 475.732 112.886 465.61 113.803C455.028 114.721 444.446 114.721 433.404 116.098C422.362 117.474 410.86 119.31 399.357 120.687C387.855 122.981 375.893 125.275 363.93 128.029C351.968 130.782 340.006 134.453 327.583 138.124C315.621 141.795 303.199 146.384 290.776 150.973C278.354 156.021 266.392 161.068 253.969 166.575C249.368 168.869 244.307 171.164 239.706 173.458C242.927 173.458 246.148 173.458 248.908 173.917C259.95 173.917 270.532 174.835 280.194 176.212C289.856 176.671 299.058 177.129 308.26 178.965C326.203 182.177 341.386 184.472 353.808 187.225C379.113 193.649 393.376 197.32 393.376 197.32C393.376 197.32 379.113 197.779 354.269 198.697C341.846 199.156 327.123 201.45 310.1 203.286C301.818 204.204 292.617 206.498 283.415 208.334C274.213 210.169 264.091 212.005 254.429 214.758C209.341 227.607 190.937 243.668 149.989 268.906C154.59 268.447 158.731 268.447 162.872 268.447C172.993 267.989 182.195 267.53 190.937 267.53C208.88 268.447 224.063 267.989 236.486 269.365C261.791 272.118 276.053 273.954 276.053 273.954C276.053 273.954 262.251 276.248 237.866 280.837C225.904 283.132 211.181 287.721 195.078 291.85C186.796 294.145 178.515 297.357 169.313 300.569C145.848 315.254 140.787 314.795 91.5577 360.224C95.2384 359.307 98.4591 358.389 102.14 357.471C112.722 354.259 122.844 352.423 132.506 350.588C142.168 348.752 151.369 346.458 160.111 345.54C177.594 343.704 192.317 341.41 205.2 340.492C230.045 339.574 244.307 338.657 244.307 338.657C244.307 338.657 230.965 343.246 207.5 351.505C195.998 355.635 182.195 362.519 166.552 368.943C158.731 372.614 150.449 377.203 142.168 381.792C133.426 386.381 124.684 390.97 115.482 396.935C106.281 402.901 97.0788 408.407 87.4169 414.832C40.0277 458.884 13.3426 502.937 0 563.969C227.744 293.686 694.274 148.22 1004.37 367.566C991.952 365.731 971.248 362.06 959.286 364.354C950.544 366.19 939.962 373.991 933.521 389.134C906.375 454.754 845.644 597.468 663.909 649.321C555.328 680.067 446.286 650.239 367.611 628.672C260.41 599.303 197.378 626.836 86.9568 575.9C135.726 624.083 149.989 633.719 200.139 649.321C209.801 650.698 219.002 651.616 228.204 652.993C237.406 654.369 245.688 654.828 253.969 655.287C262.251 655.746 270.072 656.205 277.434 656.205C292.157 655.746 305.039 656.205 315.621 655.746C336.785 654.369 349.208 653.451 349.208 653.451C349.208 653.451 337.705 657.122 317.001 664.006C306.879 667.218 293.997 669.971 279.274 674.101C271.913 675.937 264.091 677.313 255.81 678.69C247.528 680.526 238.786 681.902 229.124 682.82C225.904 683.279 223.143 683.738 219.923 684.197C235.566 691.539 241.547 697.504 274.213 701.634C283.415 701.634 291.696 701.175 299.978 700.258C308.26 699.799 316.081 699.34 323.443 698.422C338.165 696.128 351.048 694.751 361.17 692.915C382.334 688.786 394.296 686.032 394.296 686.032C394.296 686.032 383.254 691.539 363.47 700.717C353.808 705.305 341.386 709.894 327.123 715.401C320.222 718.154 312.4 720.449 304.119 723.202C300.438 724.579 297.218 725.496 293.537 726.873C331.264 736.051 324.363 737.886 366.231 735.133C375.893 734.215 385.095 732.838 393.836 731.921C403.038 731.003 411.32 729.167 419.141 727.791C427.423 725.955 434.784 725.037 442.146 723.202C456.408 719.531 468.831 716.319 479.413 713.106C499.657 706.223 511.619 702.552 511.619 702.552C511.619 702.552 501.037 709.435 482.633 720.907C473.432 726.873 461.469 732.838 448.127 740.181C441.225 743.852 433.864 747.064 426.042 750.735C418.221 754.406 409.939 758.536 401.198 761.748C398.897 762.666 396.137 763.584 393.836 764.501C398.437 764.501 403.038 764.96 407.639 764.96C419.141 764.96 430.643 764.501 441.686 764.501C452.728 763.584 464.23 763.125 475.272 762.207C486.314 760.83 496.896 759.913 507.478 758.077C518.06 756.242 528.182 754.406 538.304 752.112C548.426 749.817 558.088 747.064 567.29 744.769C576.492 742.016 585.233 739.263 593.975 736.51C602.717 734.215 610.538 730.544 618.36 727.791C626.181 724.579 633.543 722.284 640.444 719.072C653.787 712.648 665.749 707.6 675.411 702.552C694.274 692.457 705.317 686.491 705.317 686.491C705.317 686.491 695.655 694.751 679.552 709.435C671.27 716.778 660.228 724.579 648.265 734.215C642.284 738.804 635.383 743.393 628.022 748.441C620.66 753.488 613.299 758.536 605.017 763.584C596.736 768.631 588.454 773.679 579.252 778.727C570.05 783.316 560.849 788.363 551.187 793.411C548.426 794.788 545.206 796.164 542.445 797.541C543.825 797.541 545.206 797.541 547.046 798C554.407 796.623 562.229 795.247 569.59 793.87C580.632 791.117 592.135 788.822 602.717 785.61C613.299 782.398 624.341 779.645 634.923 775.974C645.505 772.303 655.627 769.09 665.749 764.96C675.411 760.83 685.533 757.159 694.734 752.57C703.936 747.982 713.138 743.852 721.88 739.263C730.621 734.674 738.903 730.085 746.725 725.496C755.006 721.366 761.907 716.319 769.269 711.73C776.17 707.141 783.072 703.011 789.053 698.422C801.015 689.244 812.057 681.902 820.339 675.019C837.362 660.794 847.024 652.993 847.024 652.993C847.024 652.993 839.202 663.088 825.4 681.443C818.498 690.621 809.297 700.258 799.175 712.648C794.114 718.613 788.133 724.579 782.151 731.003C776.17 737.427 769.729 744.311 762.368 750.735C755.926 756.7 749.025 763.125 741.664 769.549C1014.96 668.136 1011.74 261.105 1343 225.312C1324.6 215.676 1306.19 205.58 1288.71 201.45C1272.61 197.32 1252.82 199.156 1242.7 200.991C1181.97 132.618 1080.75 172.082 1006.21 195.026L892.573 132.618C883.831 124.358 874.169 116.098 863.127 106.002C852.545 97.2835 841.503 88.5647 830.461 79.8459C819.419 71.1271 807.456 63.326 795.494 54.6072C783.532 46.3473 771.109 39.0052 759.147 31.2041C754.546 28.4508 749.945 25.6975 744.884 22.9442C698.415 7.34215 651.946 0 606.857 0Z" fill="url(#paint0_linear_0_99)"/>
<defs>
<linearGradient id="paint0_linear_0_99" x1="26.5908" y1="400.002" x2="1119.01" y2="397.268" gradientUnits="userSpaceOnUse">
<stop stop-color="#552383"/>
<stop offset="1" stop-color="#32B6B3"/>
</linearGradient>
</defs>
</svg>
