<svg width="611" height="611" viewBox="0 0 611 611" fill="none" xmlns="http://www.w3.org/2000/svg">
<path d="M305.5 0C345.619 4.78412e-07 385.345 7.90199 422.41 23.2548C459.475 38.6076 493.153 61.1106 521.521 89.4789C549.889 117.847 572.392 151.525 587.745 188.59C603.098 225.655 611 265.381 611 305.5C611 345.619 603.098 385.345 587.745 422.41C572.392 459.475 549.889 493.153 521.521 521.521C493.153 549.889 459.475 572.392 422.41 587.745C385.345 603.098 345.619 611 305.5 611L305.5 559.432C338.847 559.432 371.867 552.864 402.675 540.103C433.484 527.341 461.477 508.637 485.057 485.057C508.637 461.477 527.341 433.484 540.102 402.676C552.864 371.867 559.432 338.847 559.432 305.5C559.432 272.153 552.864 239.133 540.102 208.325C527.341 177.516 508.637 149.523 485.057 125.943C461.477 102.363 433.484 83.6588 402.676 70.8975C371.867 58.1362 338.847 51.5681 305.5 51.5681L305.5 0Z" fill="url(#paint0_linear_321_2)" fill-opacity="0.8"/>
<path d="M305.5 611C265.381 611 225.655 603.098 188.59 587.745C151.525 572.392 117.847 549.889 89.4789 521.521C61.1106 493.153 38.6076 459.475 23.2548 422.41C7.90198 385.345 -3.5073e-06 345.619 0 305.5L173.805 305.5C173.805 322.794 177.212 339.919 183.83 355.897C190.448 371.875 200.149 386.393 212.378 398.622C224.607 410.851 239.125 420.552 255.103 427.17C271.081 433.788 288.206 437.195 305.5 437.195L305.5 611Z" fill="url(#paint1_linear_321_2)" fill-opacity="0.8"/>
<defs>
<linearGradient id="paint0_linear_321_2" x1="348.168" y1="-40.9609" x2="360.115" y2="634.325" gradientUnits="userSpaceOnUse">
<stop offset="0.128125" stop-color="#7E23D1"/>
<stop offset="1" stop-color="#7E23D1" stop-opacity="0.12"/>
</linearGradient>
<linearGradient id="paint1_linear_321_2" x1="243.49" y1="639.445" x2="112.074" y2="246.903" gradientUnits="userSpaceOnUse">
<stop offset="0.128125" stop-color="#04B8FF"/>
<stop offset="1" stop-color="#04B8FF" stop-opacity="0"/>
</linearGradient>
</defs>
</svg>
