<svg width="266" height="531" viewBox="0 0 266 531" fill="none" xmlns="http://www.w3.org/2000/svg">
<path d="M0.499997 531C70.915 531 138.446 503.028 188.237 453.237C238.028 403.446 266 335.915 266 265.5C266 195.085 238.028 127.554 188.237 77.7632C138.446 27.9723 70.915 1.14721e-05 0.500043 0L0.500016 167.211C26.5678 167.211 51.5679 177.567 70.0007 195.999C88.4334 214.432 98.7888 239.432 98.7888 265.5C98.7888 291.568 88.4334 316.568 70.0007 335.001C51.5679 353.433 26.5678 363.789 0.499999 363.789L0.499997 531Z" fill="url(#paint0_linear_0_96)" fill-opacity="0.8"/>
<defs>
<linearGradient id="paint0_linear_0_96" x1="0.5" y1="531" x2="-0.0566038" y2="-148.057" gradientUnits="userSpaceOnUse">
<stop offset="0.148958" stop-color="#33DCD8"/>
<stop offset="1" stop-color="#33DCD8" stop-opacity="0"/>
</linearGradient>
</defs>
</svg>
