<svg width="193" height="193" viewBox="0 0 193 193" fill="none" xmlns="http://www.w3.org/2000/svg">
<path d="M0 96.5C1.66854e-06 77.4141 5.65963 58.7568 16.2632 42.8875C26.8667 27.0181 41.938 14.6495 59.5711 7.34562C77.2041 0.0417652 96.6071 -1.86925 115.326 1.85422C134.045 5.5777 151.24 14.7684 164.736 28.2642C178.232 41.76 187.422 58.9546 191.146 77.6738C194.869 96.393 192.958 115.796 185.654 133.429C178.351 151.062 165.982 166.133 150.113 176.737C134.243 187.34 115.586 193 96.5 193L96.5 158.826C108.827 158.826 120.877 155.17 131.126 148.322C141.376 141.473 149.364 131.739 154.081 120.351C158.799 108.962 160.033 96.4309 157.628 84.3409C155.223 72.2509 149.287 61.1456 140.571 52.4292C131.854 43.7128 120.749 37.7769 108.659 35.372C96.5692 32.9672 84.0376 34.2014 72.6491 38.9187C61.2606 43.636 51.5266 51.6244 44.6782 61.8738C37.8298 72.1232 34.1745 84.1732 34.1745 96.5H0Z" fill="url(#paint0_linear_177_215)"/>
<defs>
<linearGradient id="paint0_linear_177_215" x1="121.76" y1="179.087" x2="97" y2="6.50001" gradientUnits="userSpaceOnUse">
<stop stop-color="#7429BF"/>
<stop offset="1" stop-color="#7429BF" stop-opacity="0.02"/>
</linearGradient>
</defs>
</svg>
