<svg width="100" height="100" viewBox="0 0 100 100" fill="none" xmlns="http://www.w3.org/2000/svg">
<circle cx="50" cy="50" r="50" fill="#04B8FF"/>
<path d="M75.0561 31.4099L57.3301 23.6375C56.3698 23.2171 55.3329 23 54.2846 23C53.2364 23 52.1994 23.2171 51.2391 23.6375L33.5132 31.4099C32.315 31.9361 31.5712 33.0643 31.5712 34.3572C31.5712 35.6501 32.3169 36.7783 33.5132 37.3045L39.1423 39.7729V48.2514C39.1423 48.7534 39.3417 49.2349 39.6967 49.5899C40.0517 49.9449 40.5331 50.1443 41.0351 50.1443C41.5371 50.1443 42.0185 49.9449 42.3735 49.5899C42.7285 49.2349 42.9279 48.7534 42.9279 48.2514V41.433L51.2391 45.0769C52.1987 45.4988 53.2353 45.7167 54.2835 45.7171C55.3316 45.7174 56.3684 45.5 57.3282 45.0788L65.6414 41.433V48.0053C65.6414 49.4875 64.8615 50.8296 63.6047 51.511C63.3862 51.6296 63.1932 51.7901 63.0368 51.9832C62.8803 52.1764 62.7634 52.3985 62.6927 52.6369C62.6221 52.8752 62.599 53.1251 62.625 53.3724C62.6509 53.6196 62.7253 53.8594 62.8438 54.0779C62.9624 54.2964 63.1228 54.4894 63.316 54.6459C63.5091 54.8024 63.7312 54.9193 63.9696 54.99C64.2079 55.0606 64.4578 55.0836 64.705 55.0577C64.9523 55.0318 65.192 54.9574 65.4104 54.8388C66.634 54.1679 67.6535 53.1786 68.3608 51.9756C69.0682 50.7727 69.4372 49.4008 69.4288 48.0053V39.7729L75.058 37.3045C76.2561 36.7783 77 35.6501 77 34.3572C77 33.0643 76.2523 31.9361 75.0561 31.4099ZM55.8083 41.611C55.328 41.8217 54.8092 41.9305 54.2846 41.9305C53.7601 41.9305 53.2413 41.8217 52.7609 41.611L36.2236 34.3572L52.7628 27.1035C53.2432 26.8928 53.762 26.784 54.2865 26.784C54.8111 26.784 55.3299 26.8928 55.8102 27.1035L72.3475 34.3572L55.8083 41.611ZM70.7898 59.4008C70.5532 59.4008 70.292 59.4235 70.027 59.4519L61.8179 60.476C61.7239 59.0425 61.0893 57.6981 60.0423 56.7146C58.9952 55.7311 57.6139 55.1818 56.1774 55.1777H49.8347C49.2233 55.1777 48.6176 55.0792 48.0441 54.8899L47.7072 54.7745C44.6348 53.7496 41.3335 53.6241 38.1921 54.4129L36.7536 54.7726C36.309 53.7684 35.5829 52.9146 34.6631 52.3145C33.7433 51.7145 32.6693 51.394 31.5712 51.3918H29.6784C26.5477 51.3918 24 53.9397 24 57.0706V70.3212C24 73.4521 26.5477 76 29.6784 76H31.5712C32.5884 75.9963 33.5858 75.7186 34.4585 75.1959C35.3311 74.6733 36.0468 73.925 36.5303 73.03L38.8887 74.215C41.2569 75.3849 43.862 75.9956 46.5034 76H56.4405C58.2822 76 60.0955 75.7066 61.8274 75.1274L72.7545 71.491C75.8113 70.4632 77.5924 67.2168 76.8069 64.1048C76.4715 62.7619 75.697 61.5697 74.6064 60.7174C73.5159 59.8651 72.1738 59.4017 70.7898 59.4008ZM33.4639 70.3231C33.4639 70.8251 33.2645 71.3066 32.9096 71.6616C32.5546 72.0166 32.0732 72.216 31.5712 72.216H29.6784C29.1764 72.216 28.6949 72.0166 28.34 71.6616C27.985 71.3066 27.7856 70.8251 27.7856 70.3231V57.0725C27.7856 56.5705 27.985 56.089 28.34 55.734C28.6949 55.379 29.1764 55.1796 29.6784 55.1796H31.5712C32.0732 55.1796 32.5546 55.379 32.9096 55.734C33.2645 56.089 33.4639 56.5705 33.4639 57.0725V70.3231ZM71.5563 67.902L60.6312 71.5383C59.2804 71.9881 57.866 72.2169 56.4424 72.216H46.5053C44.4498 72.212 42.4226 71.7374 40.5789 70.8285L37.2495 69.157V58.5509L39.1101 58.0871C41.5516 57.4751 44.1171 57.5723 46.5053 58.3673L46.8422 58.4827C47.8072 58.804 48.8176 58.9677 49.8347 58.9673H56.1774C56.6794 58.9673 57.1609 59.1668 57.5158 59.5218C57.8708 59.8768 58.0702 60.3582 58.0702 60.8603C58.0702 61.3623 57.8708 61.8438 57.5158 62.1988C57.1609 62.5538 56.6794 62.7532 56.1774 62.7532H50.4991C49.9971 62.7532 49.5156 62.9526 49.1607 63.3076C48.8057 63.6626 48.6063 64.1441 48.6063 64.6461C48.6063 65.1482 48.8057 65.6297 49.1607 65.9847C49.5156 66.3397 49.9971 66.5391 50.4991 66.5391H56.1774C57.9377 66.5391 59.4955 65.7157 60.5365 64.455L70.4642 63.217C71.6794 63.0958 72.8359 63.8473 73.1349 65.0342C73.2781 65.6238 73.1953 66.2456 72.9027 66.7772C72.6102 67.3087 72.1292 67.7114 71.5544 67.9058L71.5563 67.902Z" fill="white"/>
</svg>
