<svg width="193" height="193" viewBox="0 0 193 193" fill="none" xmlns="http://www.w3.org/2000/svg">
<path d="M96.5 0C115.586 2.27597e-07 134.243 5.65963 150.113 16.2632C165.982 26.8667 178.351 41.938 185.654 59.571C192.958 77.2041 194.869 96.607 191.146 115.326C187.422 134.045 178.232 151.24 164.736 164.736C151.24 178.232 134.045 187.422 115.326 191.146C96.607 194.869 77.2041 192.958 59.571 185.654C41.938 178.351 26.8667 165.982 16.2632 150.113C5.65963 134.243 -4.55194e-07 115.586 0 96.5H34.1745C34.1745 108.827 37.8298 120.877 44.6782 131.126C51.5266 141.376 61.2605 149.364 72.649 154.081C84.0376 158.799 96.5691 160.033 108.659 157.628C120.749 155.223 131.854 149.287 140.571 140.571C149.287 131.854 155.223 120.749 157.628 108.659C160.033 96.5691 158.799 84.0376 154.081 72.649C149.364 61.2605 141.376 51.5266 131.126 44.6782C120.877 37.8298 108.827 34.1745 96.5 34.1745V0Z" fill="url(#paint0_linear_177_243)"/>
<defs>
<linearGradient id="paint0_linear_177_243" x1="121.76" y1="179.087" x2="97" y2="6.50001" gradientUnits="userSpaceOnUse">
<stop stop-color="#7429BF"/>
<stop offset="1" stop-color="#7429BF" stop-opacity="0.02"/>
</linearGradient>
</defs>
</svg>
