<svg width="100" height="100" viewBox="0 0 100 100" fill="none" xmlns="http://www.w3.org/2000/svg">
<circle cx="50" cy="50" r="50" fill="#04B8FF"/>
<path d="M63 53C55.28 53 49 59.28 49 67C49 74.72 55.28 81 63 81C70.72 81 77 74.72 77 67C77 59.28 70.72 53 63 53ZM63 77C57.486 77 53 72.514 53 67C53 61.486 57.486 57 63 57C68.514 57 73 61.486 73 67C73 72.514 68.514 77 63 77Z" fill="white"/>
<path d="M66.5031 63.0757L62.492 67.0637L61.2102 65.7893C61.0201 65.6003 60.7944 65.4504 60.5461 65.3481C60.2977 65.2458 60.0315 65.1932 59.7626 65.1932C59.4938 65.1932 59.2276 65.2458 58.9792 65.3481C58.7308 65.4504 58.5051 65.6003 58.315 65.7893C58.1249 65.9783 57.9741 66.2027 57.8712 66.4497C57.7684 66.6966 57.7154 66.9613 57.7154 67.2286C57.7154 67.4959 57.7684 67.7605 57.8712 68.0075C57.9741 68.2544 58.1249 68.4788 58.315 68.6678L61.0444 71.3814C61.2341 71.5711 61.4597 71.7217 61.7081 71.8244C61.9565 71.9271 62.2229 71.98 62.492 71.98C62.7611 71.98 63.0275 71.9271 63.2759 71.8244C63.5243 71.7217 63.7499 71.5711 63.9396 71.3814L69.4004 65.9522C69.5905 65.7632 69.7413 65.5388 69.8442 65.2918C69.947 65.0449 70 64.7802 70 64.5129C70 64.2456 69.947 63.981 69.8442 63.734C69.7413 63.4871 69.5905 63.2627 69.4004 63.0737C69.2103 62.8847 68.9846 62.7347 68.7362 62.6325C68.4878 62.5302 68.2216 62.4775 67.9528 62.4775C67.6839 62.4775 67.4177 62.5302 67.1693 62.6325C66.921 62.7347 66.6953 62.8847 66.5052 63.0737L66.5031 63.0757ZM45.1002 72.9286H37.2377C35.9715 72.9245 34.7376 72.531 33.7052 71.8021C32.6729 71.0731 31.8928 70.0444 31.4718 68.8571H43.3803C43.9233 68.8571 44.4441 68.6427 44.8281 68.2609C45.2121 67.8791 45.4278 67.3613 45.4278 66.8214C45.4278 66.2815 45.2121 65.7637 44.8281 65.382C44.4441 65.0002 43.9233 64.7857 43.3803 64.7857H31.0951V30.1786C31.0951 26.8115 33.8511 24.0714 37.2377 24.0714H55.6655C59.0521 24.0714 61.8081 26.8115 61.8081 30.1786V46.4643C61.8081 47.0042 62.0238 47.522 62.4078 47.9038C62.7918 48.2855 63.3126 48.5 63.8557 48.5C64.3987 48.5 64.9195 48.2855 65.3035 47.9038C65.6875 47.522 65.9032 47.0042 65.9032 46.4643V30.1786C65.9032 24.5661 61.3106 20 55.6655 20H37.2377C31.5926 20 27 24.5661 27 30.1786V66.8214C27 72.4339 31.5926 77 37.2377 77H45.1002C45.6433 77 46.1641 76.7855 46.548 76.4038C46.932 76.022 47.1478 75.5042 47.1478 74.9643C47.1478 74.4244 46.932 73.9066 46.548 73.5248C46.1641 73.143 45.6433 72.9286 45.1002 72.9286Z" fill="white"/>
<path d="M43 28C42.4696 28 41.9609 28.2107 41.5858 28.5858C41.2107 28.9609 41 29.4696 41 30C41 30.5304 41.2107 31.0391 41.5858 31.4142C41.9609 31.7893 42.4696 32 43 32H49C49.5304 32 50.0391 31.7893 50.4142 31.4142C50.7893 31.0391 51 30.5304 51 30C51 29.4696 50.7893 28.9609 50.4142 28.5858C50.0391 28.2107 49.5304 28 49 28H43Z" fill="white"/>
</svg>
