<svg width="154" height="308" viewBox="0 0 154 308" fill="none" xmlns="http://www.w3.org/2000/svg">
<path d="M154 308C113.157 308 73.9862 291.775 45.1056 262.894C16.225 234.014 1.83394e-05 194.843 0 154C-1.83394e-05 113.157 16.2249 73.9862 45.1055 45.1056C73.9861 16.225 113.157 3.84642e-05 154 0L154 87.6106C136.392 87.6106 119.506 94.6052 107.056 107.056C94.6052 119.506 87.6106 136.392 87.6106 154C87.6106 171.608 94.6052 188.494 107.056 200.944C119.506 213.395 136.392 220.389 154 220.389V308Z" fill="url(#paint0_linear_411_430)"/>
<defs>
<linearGradient id="paint0_linear_411_430" x1="154.798" y1="-69.4197" x2="154.798" y2="244.964" gradientUnits="userSpaceOnUse">
<stop stop-color="#33DCD8"/>
<stop offset="1" stop-color="#33DCD8" stop-opacity="0.08"/>
</linearGradient>
</defs>
</svg>
