<svg width="100" height="100" viewBox="0 0 100 100" fill="none" xmlns="http://www.w3.org/2000/svg">
<circle cx="50" cy="50" r="50" fill="#04B8FF"/>
<path d="M67.2308 22H32.7692C29.9141 22.0034 27.1769 23.1386 25.158 25.1564C23.1391 27.1743 22.0034 29.9101 22 32.7638V52.1387C22.0034 54.9924 23.1391 57.7282 25.158 59.7461C27.1769 61.7639 29.9141 62.8991 32.7692 62.9025H40.2732L35.104 74.9709C34.9878 75.2314 34.9246 75.5125 34.918 75.7977C34.9114 76.0829 34.9617 76.3666 35.0657 76.6322C35.1698 76.8979 35.3257 77.1402 35.5243 77.3451C35.7229 77.55 35.9603 77.7134 36.2226 77.8258C36.4849 77.9382 36.767 77.9974 37.0524 77.9999C37.3378 78.0024 37.6209 77.9482 37.8852 77.8404C38.1494 77.7326 38.3896 77.5734 38.5918 77.372C38.794 77.1706 38.954 76.931 39.0628 76.6672L41.2662 71.5135H58.7123L60.9071 76.6629C61.0726 77.0512 61.3487 77.3823 61.701 77.615C62.0533 77.8478 62.4663 77.9718 62.8886 77.9718C63.2447 77.9718 63.5952 77.8836 63.9088 77.7151C64.2223 77.5465 64.4892 77.3029 64.6856 77.006C64.8819 76.7091 65.0015 76.3682 65.0337 76.0138C65.0659 75.6594 65.0097 75.3026 64.8702 74.9752L59.7203 62.9025H67.2308C70.0859 62.8991 72.8231 61.7639 74.842 59.7461C76.8609 57.7282 77.9966 54.9924 78 52.1387V32.7638C77.9966 29.9101 76.8609 27.1743 74.842 25.1564C72.8231 23.1386 70.0859 22.0034 67.2308 22ZM56.8729 67.208H43.1077L44.9535 62.9025H55.0335L56.8729 67.208ZM73.6923 52.1387C73.6923 53.8515 73.0115 55.4942 71.7998 56.7054C70.588 57.9165 68.9445 58.597 67.2308 58.597H32.7692C31.0555 58.597 29.412 57.9165 28.2002 56.7054C26.9885 55.4942 26.3077 53.8515 26.3077 52.1387V32.7638C26.3077 31.051 26.9885 29.4083 28.2002 28.1971C29.412 26.9859 31.0555 26.3055 32.7692 26.3055H67.2308C68.9445 26.3055 70.588 26.9859 71.7998 28.1971C73.0115 29.4083 73.6923 31.051 73.6923 32.7638V52.1387Z" fill="white"/>
<path d="M64.875 50.6364H35.125C34.5614 50.6364 34.0209 50.8662 33.6224 51.2754C33.2239 51.6846 33 52.2395 33 52.8182C33 53.3968 33.2239 53.9518 33.6224 54.361C34.0209 54.7701 34.5614 55 35.125 55H64.875C65.4386 55 65.9791 54.7701 66.3776 54.361C66.7761 53.9518 67 53.3968 67 52.8182C67 52.2395 66.7761 51.6846 66.3776 51.2754C65.9791 50.8662 65.4386 50.6364 64.875 50.6364ZM37.25 48.4545C37.8136 48.4545 38.3541 48.2247 38.7526 47.8155C39.1511 47.4063 39.375 46.8514 39.375 46.2727V37.5455C39.375 36.9668 39.1511 36.4118 38.7526 36.0027C38.3541 35.5935 37.8136 35.3636 37.25 35.3636C36.6864 35.3636 36.1459 35.5935 35.7474 36.0027C35.3489 36.4118 35.125 36.9668 35.125 37.5455V46.2727C35.125 46.8514 35.3489 47.4063 35.7474 47.8155C36.1459 48.2247 36.6864 48.4545 37.25 48.4545ZM45.75 48.4545C46.3136 48.4545 46.8541 48.2247 47.2526 47.8155C47.6511 47.4063 47.875 46.8514 47.875 46.2727V33.1818C47.875 32.6032 47.6511 32.0482 47.2526 31.639C46.8541 31.2299 46.3136 31 45.75 31C45.1864 31 44.6459 31.2299 44.2474 31.639C43.8489 32.0482 43.625 32.6032 43.625 33.1818V46.2727C43.625 46.8514 43.8489 47.4063 44.2474 47.8155C44.6459 48.2247 45.1864 48.4545 45.75 48.4545ZM54.25 48.4545C54.8136 48.4545 55.3541 48.2247 55.7526 47.8155C56.1511 47.4063 56.375 46.8514 56.375 46.2727V39.7273C56.375 39.1486 56.1511 38.5937 55.7526 38.1845C55.3541 37.7753 54.8136 37.5455 54.25 37.5455C53.6864 37.5455 53.1459 37.7753 52.7474 38.1845C52.3489 38.5937 52.125 39.1486 52.125 39.7273V46.2727C52.125 46.8514 52.3489 47.4063 52.7474 47.8155C53.1459 48.2247 53.6864 48.4545 54.25 48.4545ZM62.75 48.4545C63.3136 48.4545 63.8541 48.2247 64.2526 47.8155C64.6511 47.4063 64.875 46.8514 64.875 46.2727V35.3636C64.875 34.785 64.6511 34.23 64.2526 33.8209C63.8541 33.4117 63.3136 33.1818 62.75 33.1818C62.1864 33.1818 61.6459 33.4117 61.2474 33.8209C60.8489 34.23 60.625 34.785 60.625 35.3636V46.2727C60.625 46.8514 60.8489 47.4063 61.2474 47.8155C61.6459 48.2247 62.1864 48.4545 62.75 48.4545Z" fill="white"/>
</svg>
