<svg width="97" height="193" viewBox="0 0 97 193" fill="none" xmlns="http://www.w3.org/2000/svg">
<path d="M0.5 0C26.0934 3.05198e-07 50.6385 10.1669 68.7358 28.2642C86.8331 46.3615 97 70.9066 97 96.5C97 122.093 86.8331 146.639 68.7358 164.736C50.6385 182.833 26.0934 193 0.500015 193L0.500008 158.826C17.0298 158.826 32.8825 152.259 44.5708 140.571C56.2591 128.883 62.8255 113.03 62.8255 96.5C62.8255 79.9702 56.2591 64.1175 44.5708 52.4292C32.8825 40.7409 17.0298 34.1745 0.5 34.1745V0Z" fill="url(#paint0_linear_177_194)"/>
<defs>
<linearGradient id="paint0_linear_177_194" x1="25.7597" y1="179.087" x2="1.00001" y2="6.50001" gradientUnits="userSpaceOnUse">
<stop stop-color="#33DCD8"/>
<stop offset="1" stop-color="#33DCD8" stop-opacity="0.3"/>
</linearGradient>
</defs>
</svg>
