<svg width="97" height="97" viewBox="0 0 97 97" fill="none" xmlns="http://www.w3.org/2000/svg">
<path d="M0.5 0C13.1726 1.51119e-07 25.721 2.49605 37.429 7.34563C49.1369 12.1952 59.775 19.3033 68.7358 28.2642C77.6967 37.2251 84.8048 47.8631 89.6544 59.5711C94.504 71.279 97 83.8275 97 96.5L62.8255 96.5C62.8255 88.3153 61.2134 80.2107 58.0813 72.6491C54.9491 65.0874 50.3583 58.2167 44.5708 52.4292C38.7834 46.6417 31.9126 42.0509 24.351 38.9187C16.7893 35.7866 8.68471 34.1745 0.5 34.1745V0Z" fill="url(#paint0_linear_177_229)"/>
<defs>
<linearGradient id="paint0_linear_177_229" x1="25.7597" y1="179.087" x2="1.00001" y2="6.50001" gradientUnits="userSpaceOnUse">
<stop stop-color="#7429BF"/>
<stop offset="1" stop-color="#7429BF" stop-opacity="0.02"/>
</linearGradient>
</defs>
</svg>
