<svg width="154" height="308" viewBox="0 0 154 308" fill="none" xmlns="http://www.w3.org/2000/svg">
<path d="M0 308C40.8433 308 80.0138 291.775 108.894 262.894C137.775 234.014 154 194.843 154 154C154 113.157 137.775 73.9862 108.894 45.1056C80.0139 16.225 40.8434 7.95249e-06 3.05176e-05 0L1.52588e-05 87.6106C17.6076 87.6106 34.494 94.6052 46.9444 107.056C59.3948 119.506 66.3894 136.392 66.3894 154C66.3894 171.608 59.3948 188.494 46.9444 200.944C34.494 213.395 17.6076 220.389 0 220.389V308Z" fill="url(#paint0_linear_180_1398)"/>
<defs>
<linearGradient id="paint0_linear_180_1398" x1="12.7668" y1="12.7668" x2="0.797919" y2="256.933" gradientUnits="userSpaceOnUse">
<stop stop-color="#7429BF"/>
<stop offset="1" stop-color="#7429BF" stop-opacity="0.12"/>
</linearGradient>
</defs>
</svg>
