<svg width="193" height="97" viewBox="0 0 193 97" fill="none" xmlns="http://www.w3.org/2000/svg">
<path d="M193 0.5C193 13.1726 190.504 25.721 185.654 37.429C180.805 49.1369 173.697 59.7749 164.736 68.7358C155.775 77.6967 145.137 84.8048 133.429 89.6544C121.721 94.504 109.173 97 96.5 97C83.8274 97 71.279 94.504 59.571 89.6544C47.8631 84.8048 37.225 77.6967 28.2642 68.7358C19.3033 59.7749 12.1952 49.1369 7.34562 37.4289C2.49604 25.721 -1.10787e-06 13.1726 0 0.499992H34.1745C34.1745 8.6847 35.7866 16.7893 38.9187 24.3509C42.0509 31.9126 46.6417 38.7833 52.4292 44.5708C58.2166 50.3583 65.0874 54.9491 72.649 58.0813C80.2107 61.2134 88.3153 62.8255 96.5 62.8255C104.685 62.8255 112.789 61.2134 120.351 58.0813C127.913 54.9491 134.783 50.3583 140.571 44.5708C146.358 38.7834 150.949 31.9126 154.081 24.351C157.213 16.7893 158.826 8.68471 158.826 0.5H193Z" fill="url(#paint0_linear_177_236)"/>
<defs>
<linearGradient id="paint0_linear_177_236" x1="121.76" y1="83.0874" x2="97" y2="-14.5" gradientUnits="userSpaceOnUse">
<stop stop-color="#04B8FF"/>
<stop offset="1" stop-color="#04B8FF" stop-opacity="0.16"/>
</linearGradient>
</defs>
</svg>
