<svg width="526" height="527" viewBox="0 0 526 527" fill="none" xmlns="http://www.w3.org/2000/svg">
<path fill-rule="evenodd" clip-rule="evenodd" d="M376 501.227C341.484 517.427 303.297 527 262.906 527C124.109 527 11.0155 420.227 -0.00012207 284H171.109C180.656 325.973 218.109 356.9 262.906 356.9C272.453 356.9 281.266 355.427 290.078 353.218L376 501.227Z" fill="url(#paint0_linear_0_89)"/>
<path fill-rule="evenodd" clip-rule="evenodd" d="M412.029 46C481.147 93.8136 526 173.258 526 263C526 352.742 481.147 432.922 412.029 480L326 331.41C344.382 314.492 356.147 289.481 356.147 262.264C356.147 235.047 344.382 210.773 326 193.119L412.029 46Z" fill="url(#paint1_linear_0_89)"/>
<path fill-rule="evenodd" clip-rule="evenodd" d="M-0.00012207 243C11.0155 106.773 124.109 0 262.906 0C303.297 0 341.484 8.83636 376 25.7727L290.078 173.782C281.266 170.836 272.453 169.364 262.906 169.364C218.109 169.364 180.656 200.291 171.109 242.264H-0.00012207V243Z" fill="url(#paint2_linear_0_89)"/>
<defs>
<linearGradient id="paint0_linear_0_89" x1="-84.6081" y1="307.443" x2="393.001" y2="480.61" gradientUnits="userSpaceOnUse">
<stop stop-color="#33DCD8"/>
<stop offset="1" stop-color="#33DCD8" stop-opacity="0.22"/>
</linearGradient>
<linearGradient id="paint1_linear_0_89" x1="426.579" y1="479.458" x2="426.579" y2="45.6421" gradientUnits="userSpaceOnUse">
<stop stop-color="#7429BF"/>
<stop offset="1" stop-color="#7429BF" stop-opacity="0.22"/>
</linearGradient>
<linearGradient id="paint2_linear_0_89" x1="375.521" y1="-0.17909" x2="30.7563" y2="273.476" gradientUnits="userSpaceOnUse">
<stop stop-color="#04B8FF"/>
<stop offset="1" stop-color="#04B8FF" stop-opacity="0.22"/>
</linearGradient>
</defs>
</svg>
