<svg width="97" height="193" viewBox="0 0 97 193" fill="none" xmlns="http://www.w3.org/2000/svg">
<path d="M96.5 193C70.9066 193 46.3615 182.833 28.2642 164.736C10.1669 146.639 -7.1196e-07 122.093 0 96.5C7.1196e-07 70.9066 10.1669 46.3615 28.2642 28.2642C46.3615 10.1669 70.9066 -3.05198e-07 96.5 0V34.1745C79.9702 34.1745 64.1175 40.7409 52.4292 52.4292C40.7409 64.1175 34.1745 79.9702 34.1745 96.5C34.1745 113.03 40.7409 128.883 52.4292 140.571C64.1175 152.259 79.9702 158.826 96.5 158.826L96.5 193Z" fill="url(#paint0_linear_177_71)"/>
<defs>
<linearGradient id="paint0_linear_177_71" x1="121.76" y1="179.087" x2="97" y2="6.50001" gradientUnits="userSpaceOnUse">
<stop stop-color="#04B8FF"/>
<stop offset="1" stop-color="#04B8FF" stop-opacity="0.27"/>
</linearGradient>
</defs>
</svg>
