<svg width="97" height="97" viewBox="0 0 97 97" fill="none" xmlns="http://www.w3.org/2000/svg">
<path d="M96.5 97C83.8274 97 71.279 94.504 59.571 89.6544C47.8631 84.8048 37.225 77.6967 28.2642 68.7358C19.3033 59.7749 12.1952 49.1369 7.34562 37.4289C2.49604 25.721 -1.10787e-06 13.1726 0 0.499992H34.1745C34.1745 8.6847 35.7866 16.7893 38.9187 24.3509C42.0509 31.9126 46.6417 38.7833 52.4292 44.5708C58.2166 50.3583 65.0874 54.9491 72.649 58.0813C80.2107 61.2134 88.3153 62.8255 96.5 62.8255L96.5 97Z" fill="url(#paint0_linear_177_201)"/>
<defs>
<linearGradient id="paint0_linear_177_201" x1="121.76" y1="83.0874" x2="97" y2="-89.5" gradientUnits="userSpaceOnUse">
<stop stop-color="#7429BF"/>
<stop offset="1" stop-color="#7429BF" stop-opacity="0.02"/>
</linearGradient>
</defs>
</svg>
