<svg width="97" height="193" viewBox="0 0 97 193" fill="none" xmlns="http://www.w3.org/2000/svg">
<path d="M0.5 0C13.1726 1.51119e-07 25.721 2.49605 37.429 7.34563C49.1369 12.1952 59.775 19.3033 68.7358 28.2642C77.6967 37.2251 84.8048 47.8631 89.6544 59.5711C94.504 71.279 97 83.8275 97 96.5C97 109.173 94.504 121.721 89.6544 133.429C84.8048 145.137 77.6966 155.775 68.7358 164.736C59.7749 173.697 49.1368 180.805 37.4289 185.654C25.721 190.504 13.1725 193 0.499969 193L0.499977 158.826C8.68468 158.826 16.7893 157.213 24.3509 154.081C31.9126 150.949 38.7833 146.358 44.5708 140.571C50.3583 134.783 54.9491 127.913 58.0813 120.351C61.2134 112.789 62.8255 104.685 62.8255 96.5C62.8255 88.3153 61.2134 80.2107 58.0813 72.6491C54.9491 65.0874 50.3583 58.2167 44.5708 52.4292C38.7834 46.6417 31.9126 42.0509 24.351 38.9187C16.7893 35.7866 8.68471 34.1745 0.5 34.1745V0Z" fill="url(#paint0_linear_177_53)"/>
<defs>
<linearGradient id="paint0_linear_177_53" x1="25.7597" y1="179.087" x2="1.00001" y2="6.50001" gradientUnits="userSpaceOnUse">
<stop stop-color="#33DCD8"/>
<stop offset="1" stop-color="#33DCD8" stop-opacity="0.02"/>
</linearGradient>
</defs>
</svg>
