<svg width="193" height="193" viewBox="0 0 193 193" fill="none" xmlns="http://www.w3.org/2000/svg">
<path d="M96.5 193C77.4141 193 58.7568 187.34 42.8875 176.737C27.0181 166.133 14.6495 151.062 7.34562 133.429C0.0417668 115.796 -1.86925 96.3929 1.85422 77.6738C5.5777 58.9546 14.7684 41.76 28.2642 28.2642C41.76 14.7684 58.9546 5.57769 77.6738 1.85422C96.393 -1.86925 115.796 0.0417711 133.429 7.34563C151.062 14.6495 166.133 27.0181 176.737 42.8875C187.34 58.7568 193 77.4141 193 96.5L158.826 96.5C158.826 84.1732 155.17 72.1232 148.322 61.8738C141.473 51.6244 131.739 43.636 120.351 38.9187C108.962 34.2014 96.4309 32.9672 84.3409 35.372C72.2509 37.7769 61.1456 43.7128 52.4292 52.4292C43.7128 61.1456 37.7769 72.2509 35.372 84.3409C32.9672 96.4309 34.2014 108.962 38.9187 120.351C43.636 131.739 51.6244 141.473 61.8738 148.322C72.1232 155.17 84.1732 158.826 96.5 158.826L96.5 193Z" fill="url(#paint0_linear_177_44)"/>
<defs>
<linearGradient id="paint0_linear_177_44" x1="121.76" y1="179.087" x2="97" y2="6.50001" gradientUnits="userSpaceOnUse">
<stop stop-color="#7429BF"/>
<stop offset="1" stop-color="#7429BF" stop-opacity="0.02"/>
</linearGradient>
</defs>
</svg>
