<svg width="100" height="100" viewBox="0 0 100 100" fill="none" xmlns="http://www.w3.org/2000/svg">
<circle cx="50" cy="50" r="50" fill="#04B8FF"/>
<path d="M64 24H62C62 21.794 60.206 20 58 20H42C39.794 20 38 21.794 38 24H36C30.486 24 26 28.486 26 34V70C26 75.514 30.486 80 36 80H64C69.514 80 74 75.514 74 70V34C74 28.486 69.514 24 64 24ZM42 24H57.998V28H42V24ZM70 70C70 73.308 67.308 76 64 76H36C32.692 76 30 73.308 30 70V34C30 30.692 32.692 28 36 28H38C38 30.206 39.794 32 42 32H58C60.206 32 62 30.206 62 28H64C67.308 28 70 30.692 70 34V70Z" fill="white"/>
<path d="M44.5844 37.5818L40.6661 41.4603L39.414 40.2209C39.0389 39.8497 38.5303 39.6411 37.9999 39.6411C37.4695 39.6411 36.9608 39.8497 36.5857 40.2209C36.2107 40.5922 36 41.0957 36 41.6207C36 42.1457 36.2107 42.6492 36.5857 43.0204L39.252 45.6596C39.4373 45.8441 39.6576 45.9905 39.9003 46.0904C40.143 46.1903 40.4032 46.2417 40.6661 46.2417C40.9289 46.2417 41.1892 46.1903 41.4319 46.0904C41.6745 45.9905 41.8949 45.8441 42.0802 45.6596L47.4146 40.3793C47.6003 40.1955 47.7476 39.9773 47.8482 39.7371C47.9487 39.4969 48.0004 39.2395 48.0004 38.9796C48.0004 38.7196 47.9487 38.4622 47.8482 38.222C47.7476 37.9818 47.6003 37.7636 47.4146 37.5798C47.2289 37.396 47.0085 37.2502 46.7658 37.1507C46.5232 37.0512 46.2631 37 46.0005 37C45.7379 37 45.4778 37.0512 45.2352 37.1507C44.9926 37.2502 44.7721 37.396 44.5864 37.5798L44.5844 37.5818ZM61.9998 39.9715H51.999C51.4685 39.9715 50.9598 40.1801 50.5847 40.5514C50.2096 40.9226 49.9988 41.4262 49.9988 41.9513C49.9988 42.4764 50.2096 42.98 50.5847 43.3513C50.9598 43.7226 51.4685 43.9312 51.999 43.9312H61.9998C62.5303 43.9312 63.0391 43.7226 63.4142 43.3513C63.7893 42.98 64 42.4764 64 41.9513C64 41.4262 63.7893 40.9226 63.4142 40.5514C63.0391 40.1801 62.5303 39.9715 61.9998 39.9715ZM44.5844 49.4609L40.6661 53.3395L39.414 52.1001C39.2283 51.9162 39.0078 51.7704 38.7652 51.6709C38.5225 51.5715 38.2625 51.5203 37.9999 51.5203C37.7372 51.5203 37.4772 51.5715 37.2345 51.6709C36.9919 51.7704 36.7714 51.9162 36.5857 52.1001C36.4 52.2839 36.2527 52.5021 36.1522 52.7423C36.0517 52.9824 36 53.2399 36 53.4998C36 53.7598 36.0517 54.0172 36.1522 54.2574C36.2527 54.4975 36.4 54.7158 36.5857 54.8996L39.252 57.5387C39.4373 57.7232 39.6576 57.8696 39.9003 57.9695C40.143 58.0694 40.4032 58.1209 40.6661 58.1209C40.9289 58.1209 41.1892 58.0694 41.4319 57.9695C41.6745 57.8696 41.8949 57.7232 42.0802 57.5387L47.4146 52.2584C47.6003 52.0746 47.7476 51.8564 47.8482 51.6162C47.9487 51.3761 48.0004 51.1186 48.0004 50.8587C48.0004 50.5987 47.9487 50.3413 47.8482 50.1011C47.7476 49.861 47.6003 49.6427 47.4146 49.4589C47.2289 49.2751 47.0085 49.1293 46.7658 49.0298C46.5232 48.9303 46.2631 48.8791 46.0005 48.8791C45.7379 48.8791 45.4778 48.9303 45.2352 49.0298C44.9926 49.1293 44.7721 49.2751 44.5864 49.4589L44.5844 49.4609ZM61.9998 51.8506H51.999C51.4685 51.8506 50.9598 52.0592 50.5847 52.4305C50.2096 52.8018 49.9988 53.3054 49.9988 53.8305C49.9988 54.3555 50.2096 54.8591 50.5847 55.2304C50.9598 55.6017 51.4685 55.8103 51.999 55.8103H61.9998C62.5303 55.8103 63.0391 55.6017 63.4142 55.2304C63.7893 54.8591 64 54.3555 64 53.8305C64 53.3054 63.7893 52.8018 63.4142 52.4305C63.0391 52.0592 62.5303 51.8506 61.9998 51.8506ZM44.5844 61.34L40.6661 65.2186L39.414 63.9792C39.2283 63.7954 39.0078 63.6496 38.7652 63.5501C38.5225 63.4506 38.2625 63.3994 37.9999 63.3994C37.7372 63.3994 37.4772 63.4506 37.2345 63.5501C36.9919 63.6496 36.7714 63.7954 36.5857 63.9792C36.4 64.163 36.2527 64.3812 36.1522 64.6214C36.0517 64.8616 36 65.119 36 65.379C36 65.6389 36.0517 65.8963 36.1522 66.1365C36.2527 66.3767 36.4 66.5949 36.5857 66.7787L39.252 69.4179C39.4373 69.6023 39.6576 69.7488 39.9003 69.8487C40.143 69.9486 40.4032 70 40.6661 70C40.9289 70 41.1892 69.9486 41.4319 69.8487C41.6745 69.7488 41.8949 69.6023 42.0802 69.4179L47.4146 64.1376C47.6003 63.9538 47.7476 63.7355 47.8482 63.4954C47.9487 63.2552 48.0004 62.9978 48.0004 62.7378C48.0004 62.4779 47.9487 62.2205 47.8482 61.9803C47.7476 61.7401 47.6003 61.5219 47.4146 61.3381C47.2289 61.1542 47.0085 61.0084 46.7658 60.909C46.5232 60.8095 46.2631 60.7583 46.0005 60.7583C45.7379 60.7583 45.4778 60.8095 45.2352 60.909C44.9926 61.0084 44.7721 61.1542 44.5864 61.3381L44.5844 61.34ZM61.9998 63.7297H51.999C51.4685 63.7297 50.9598 63.9383 50.5847 64.3096C50.2096 64.6809 49.9988 65.1845 49.9988 65.7096C49.9988 66.2347 50.2096 66.7383 50.5847 67.1096C50.9598 67.4809 51.4685 67.6894 51.999 67.6894H61.9998C62.5303 67.6894 63.0391 67.4809 63.4142 67.1096C63.7893 66.7383 64 66.2347 64 65.7096C64 65.1845 63.7893 64.6809 63.4142 64.3096C63.0391 63.9383 62.5303 63.7297 61.9998 63.7297Z" fill="white"/>
</svg>
