<svg width="197" height="394" viewBox="0 0 197 394" fill="none" xmlns="http://www.w3.org/2000/svg">
<path d="M0.0711036 393.072C52.0724 393.072 101.944 372.414 138.714 335.644C175.485 298.873 196.142 249.002 196.142 197.001C196.142 144.999 175.485 95.1279 138.714 58.3575C101.944 21.587 52.0724 0.929574 0.0711379 0.929565L0.0711178 124.415C19.3221 124.415 37.7847 132.062 51.3972 145.675C65.0097 159.287 72.6571 177.75 72.6571 197.001C72.6571 216.252 65.0097 234.714 51.3972 248.327C37.7847 261.939 19.3221 269.587 0.0711051 269.587L0.0711036 393.072Z" fill="url(#paint0_linear_0_450)" fill-opacity="0.8"/>
<defs>
<linearGradient id="paint0_linear_0_450" x1="0.071106" y1="393.072" x2="-0.339945" y2="-108.41" gradientUnits="userSpaceOnUse">
<stop offset="0.148958" stop-color="#7429BF"/>
<stop offset="1" stop-color="#33DCD8" stop-opacity="0"/>
</linearGradient>
</defs>
</svg>
