<svg width="100" height="100" viewBox="0 0 100 100" fill="none" xmlns="http://www.w3.org/2000/svg">
<circle cx="50" cy="50" r="50" fill="#04B8FF"/>
<path d="M54.1818 50H45.8182C40.829 50.0055 36.0457 51.9714 32.5178 55.4664C28.9899 58.9614 27.0055 63.7001 27 68.6429V72.7857C27 74.4338 27.6609 76.0145 28.8372 77.1799C30.0136 78.3453 31.6091 79 33.2727 79H66.7273C68.3909 79 69.9864 78.3453 71.1628 77.1799C72.3391 76.0145 73 74.4338 73 72.7857V68.6429C72.9945 63.7001 71.0101 58.9614 67.4822 55.4664C63.9543 51.9714 59.171 50.0055 54.1818 50ZM47.1104 74.8571L46.3242 73.3015C46.0896 72.838 46.0403 72.3039 46.1862 71.8059L49.4877 60.3571H50.5123L53.8159 71.8059C53.9597 72.3043 53.9097 72.8379 53.6758 73.3015L52.8896 74.8571H47.1104ZM51.8442 54.1429L50.7987 56.2143H49.2013L48.1558 54.1429H51.8442ZM31.1818 72.7857V68.6429C31.1885 65.1861 32.4405 61.8451 34.7124 59.2215C36.9843 56.5978 40.127 54.8637 43.5746 54.3314L45.676 58.4929L42.1654 70.6687C41.7706 72.0575 41.8793 73.5395 42.4727 74.8571H33.2727C32.7182 74.8571 32.1864 74.6389 31.7942 74.2504C31.4021 73.862 31.1818 73.3351 31.1818 72.7857ZM68.8182 72.7857C68.8182 73.3351 68.5979 73.862 68.2058 74.2504C67.8136 74.6389 67.2818 74.8571 66.7273 74.8571H57.5273C58.1194 73.5384 58.2274 72.056 57.8325 70.6666L54.324 58.4929L56.4149 54.3334C59.8652 54.8611 63.0115 56.5933 65.286 59.2172C67.5604 61.8412 68.8132 65.1842 68.8182 68.6429V72.7857ZM64.6364 35.5C64.6364 32.6322 63.778 29.8287 62.1697 27.4442C60.5614 25.0597 58.2755 23.2012 55.6011 22.1038C52.9266 21.0063 49.9838 20.7191 47.1446 21.2786C44.3054 21.8381 41.6975 23.2191 39.6505 25.247C37.6036 27.2748 36.2096 29.8585 35.6449 32.6712C35.0801 35.4839 35.37 38.3994 36.4778 41.0489C37.5856 43.6984 39.4615 45.963 41.8685 47.5563C44.2754 49.1496 47.1052 50 50 50C53.8804 49.9956 57.6007 48.4665 60.3446 45.7482C63.0885 43.0299 64.6319 39.3443 64.6364 35.5ZM50 25.1429C51.6685 25.1547 53.3093 25.5669 54.7819 26.3443C53.4127 27.9196 51.716 29.1832 49.808 30.0484C47.8999 30.9136 45.8257 31.3601 43.7273 31.3571C42.6854 31.346 41.6479 31.2231 40.6327 30.9905C41.4834 29.2436 42.8128 27.7689 44.4692 26.7348C46.1256 25.7008 48.0422 25.1491 50 25.1429ZM50 45.8571C47.2283 45.8539 44.5711 44.7616 42.6112 42.82C40.6513 40.8783 39.5488 38.2459 39.5455 35.5C39.5455 35.3384 39.5873 35.1851 39.5935 35.0256C40.9494 35.3355 42.3359 35.4946 43.7273 35.5C46.4489 35.5047 49.1389 34.9218 51.6099 33.7917C54.0809 32.6616 56.2736 31.0115 58.0354 28.9564C59.5883 30.7908 60.4442 33.1058 60.4545 35.5C60.4512 38.2459 59.3487 40.8783 57.3888 42.82C55.4289 44.7616 52.7717 45.8539 50 45.8571Z" fill="white"/>
</svg>
