<svg width="193" height="97" viewBox="0 0 193 97" fill="none" xmlns="http://www.w3.org/2000/svg">
<path d="M0 96.5C2.23745e-06 70.9066 10.1669 46.3615 28.2642 28.2642C46.3615 10.1669 70.9066 2.74577e-06 96.5 0C122.093 -2.74577e-06 146.639 10.1669 164.736 28.2642C182.833 46.3614 193 70.9066 193 96.5L158.826 96.5C158.826 79.9702 152.259 64.1175 140.571 52.4292C128.882 40.7409 113.03 34.1745 96.5 34.1745C79.9702 34.1745 64.1175 40.7409 52.4292 52.4292C40.7409 64.1175 34.1745 79.9702 34.1745 96.5H0Z" fill="url(#paint0_linear_177_208)"/>
<defs>
<linearGradient id="paint0_linear_177_208" x1="121.76" y1="179.087" x2="97" y2="6.50001" gradientUnits="userSpaceOnUse">
<stop stop-color="#04B8FF"/>
<stop offset="1" stop-color="#04B8FF" stop-opacity="0.56"/>
</linearGradient>
</defs>
</svg>
