<svg width="100" height="100" viewBox="0 0 100 100" fill="none" xmlns="http://www.w3.org/2000/svg">
<circle cx="50" cy="50" r="50" fill="#04B8FF"/>
<path d="M50.4091 70.0741H34.7727C31.5399 70.0741 28.9091 67.4319 28.9091 64.1852V30.8148C28.9091 27.5681 31.5399 24.9259 34.7727 24.9259H58.2273C61.4601 24.9259 64.0909 27.5681 64.0909 30.8148V40.7474C64.0909 41.268 64.2968 41.7673 64.6634 42.1354C65.0299 42.5036 65.5271 42.7104 66.0455 42.7104C66.5638 42.7104 67.061 42.5036 67.4275 42.1354C67.7941 41.7673 68 41.268 68 40.7474V30.8148C68 25.4029 63.616 21 58.2273 21H34.7727C29.384 21 25 25.4029 25 30.8148V64.1852C25 69.5971 29.384 74 34.7727 74H50.4091C50.9275 74 51.4246 73.7932 51.7912 73.4251C52.1577 73.0569 52.3636 72.5576 52.3636 72.037C52.3636 71.5164 52.1577 71.0171 51.7912 70.649C51.4246 70.2809 50.9275 70.0741 50.4091 70.0741Z" fill="white"/>
<path d="M36.9524 36.9166H50.619C51.1369 36.9166 51.6334 36.7102 51.9996 36.343C52.3657 35.9757 52.5714 35.4777 52.5714 34.9583C52.5714 34.4389 52.3657 33.9408 51.9996 33.5736C51.6334 33.2063 51.1369 33 50.619 33H36.9524C36.4346 33 35.938 33.2063 35.5718 33.5736C35.2057 33.9408 35 34.4389 35 34.9583C35 35.4777 35.2057 35.9757 35.5718 36.343C35.938 36.7102 36.4346 36.9166 36.9524 36.9166ZM55.2267 44.7497C55.2267 44.2303 55.021 43.7322 54.6548 43.365C54.2887 42.9977 53.7921 42.7914 53.2743 42.7914H36.9524C36.4346 42.7914 35.938 42.9977 35.5718 43.365C35.2057 43.7322 35 44.2303 35 44.7497C35 45.2691 35.2057 45.7672 35.5718 46.1344C35.938 46.5017 36.4346 46.708 36.9524 46.708H53.2743C53.7921 46.708 54.2887 46.5017 54.6548 46.1344C55.021 45.7672 55.2267 45.2691 55.2267 44.7497ZM49.6819 52.5828C49.6819 52.0635 49.4762 51.5654 49.1101 51.1981C48.7439 50.8309 48.2473 50.6246 47.7295 50.6246H36.9524C36.4346 50.6246 35.938 50.8309 35.5718 51.1981C35.2057 51.5654 35 52.0635 35 52.5828C35 53.1022 35.2057 53.6003 35.5718 53.9676C35.938 54.3348 36.4346 54.5411 36.9524 54.5411H47.7295C48.2473 54.5411 48.7439 54.3348 49.1101 53.9676C49.4762 53.6003 49.6819 53.1022 49.6819 52.5828ZM36.9524 58.4577C36.4346 58.4577 35.938 58.664 35.5718 59.0313C35.2057 59.3985 35 59.8966 35 60.416C35 60.9353 35.2057 61.4334 35.5718 61.8007C35.938 62.1679 36.4346 62.3743 36.9524 62.3743H46.8314C47.3492 62.3743 47.8458 62.1679 48.212 61.8007C48.5781 61.4334 48.7838 60.9353 48.7838 60.416C48.7838 59.8966 48.5781 59.3985 48.212 59.0313C47.8458 58.664 47.3492 58.4577 46.8314 58.4577H36.9524ZM76 58.4577C76 51.9777 70.7461 46.708 64.2857 46.708C57.8253 46.708 52.5714 51.9777 52.5714 58.4577C52.5714 61.9258 54.0865 65.0375 56.4762 67.1916V77.0555C56.4762 78.1404 57.0717 79.1352 58.0264 79.6483C58.987 80.1653 60.135 80.1085 61.0409 79.5034L64.2857 77.3179L67.5384 79.5073C67.9811 79.7988 68.4942 79.9651 69.0233 79.9885C69.5524 80.0119 70.078 79.8917 70.5447 79.6404C71.0113 79.3891 71.4017 79.0161 71.6746 78.5608C71.9475 78.1055 72.0928 77.5848 72.0952 77.0536V67.1897C73.3227 66.0918 74.305 64.7463 74.9779 63.2411C75.6508 61.736 75.9991 60.1072 76 58.4577ZM68.1905 75.2284L65.3751 73.3328C65.0535 73.1155 64.6745 72.9994 64.2867 72.9994C63.8989 72.9994 63.5199 73.1155 63.1982 73.3328L60.3829 75.2284V69.522C61.607 69.9587 62.9171 70.2074 64.2877 70.2074C65.6582 70.2074 66.9683 69.9567 68.1924 69.522L68.1905 75.2284ZM64.2857 66.2908C59.9788 66.2908 56.4762 62.7777 56.4762 58.4577C56.4762 54.1377 59.9788 50.6246 64.2857 50.6246C68.5927 50.6246 72.0952 54.1377 72.0952 58.4577C72.0952 62.7777 68.5927 66.2908 64.2857 66.2908Z" fill="white"/>
</svg>
