<svg width="0" height="0" class="hidden">
    <symbol xmlns="http://www.w3.org/2000/svg" viewBox="0 0 11 11" id="icon-arrow-diagonal">
        <path d="M1.18462 11L0 9.81539L8.12308 1.69231H0.846154V0H11V10.1538H9.30769V2.87692L1.18462 11Z"></path>
    </symbol>

    <symbol xmlns="http://www.w3.org/2000/svg" viewBox="0 0 15 15" id="icon-close">
        <path d="M1.51913 1L14 14M13.4809 1L1 14" stroke="#B7ACC2" stroke-width="1.5"></path>
    </symbol>

    <symbol xmlns="http://www.w3.org/2000/svg" viewBox="0 0 14 15" id="icon-search">
        <path d="M12.6477 14.2809L8.19318 9.82006C7.79545 10.1387 7.33807 10.3909 6.82102 10.5768C6.30398 10.7627 5.75379 10.8556 5.17045 10.8556C3.72538 10.8556 2.5025 10.3546 1.50182 9.35246C0.500606 8.34982 0 7.12494 0 5.67781C0 4.23068 0.500606 3.00579 1.50182 2.00316C2.5025 1.00105 3.72538 0.5 5.17045 0.5C6.61553 0.5 7.83867 1.00105 8.83989 2.00316C9.84057 3.00579 10.3409 4.23068 10.3409 5.67781C10.3409 6.26197 10.2481 6.81294 10.0625 7.33073C9.87689 7.84851 9.625 8.30654 9.30682 8.70484L13.7812 13.1856C13.9271 13.3317 14 13.5109 14 13.7233C14 13.9358 13.9205 14.1216 13.7614 14.2809C13.6155 14.427 13.4299 14.5 13.2045 14.5C12.9792 14.5 12.7936 14.427 12.6477 14.2809ZM5.17045 9.26245C6.16477 9.26245 7.01008 8.91407 7.70636 8.21733C8.40212 7.52005 8.75 6.67354 8.75 5.67781C8.75 4.68208 8.40212 3.83557 7.70636 3.13829C7.01008 2.44155 6.16477 2.09317 5.17045 2.09317C4.17614 2.09317 3.33083 2.44155 2.63455 3.13829C1.93879 3.83557 1.59091 4.68208 1.59091 5.67781C1.59091 6.67354 1.93879 7.52005 2.63455 8.21733C3.33083 8.91407 4.17614 9.26245 5.17045 9.26245Z" fill="#33DCD8"></path>
    </symbol>

    <symbol fill="none"
        xmlns="http://www.w3.org/2000/svg" viewBox="0 0 26 53" id="icon-slider-arrow-left">
        <path d="M24 51L0.999999 27.3033L24 2" stroke="#B7ACC2" stroke-width="2" stroke-linecap="square" stroke-linejoin="round"></path>
    </symbol>

    <symbol fill="none"
        xmlns="http://www.w3.org/2000/svg" viewBox="0 0 26 53" id="icon-slider-arrow-right">
        <path d="M2 2L25 25.6967L2 51" stroke="#B7ACC2" stroke-width="2" stroke-linecap="square" stroke-linejoin="round"></path>
    </symbol>

    <symbol fill="none" xmlns="http://www.w3.org/2000/svg" viewBox="0 0 56 46" id="icon-quotation-marks">
        <path d="M24.1955 0C14.2721 0.694757 0.00784 2.27333 0 21.637V46H22.1435V19.9334H14.7908C14.325 12.9731 20.0774 11.1759 26.3328 9.79625L24.1955 0ZM53.8626 0C43.9392 0.694757 29.675 2.27337 29.6672 21.637V46H51.8107V19.9334H44.458C43.9922 12.9731 49.7446 11.1759 56 9.79625L53.8626 0Z" fill="url(#paint0_linear_411_355)" fill-opacity="0.7"></path>
        <defs>
            <linearGradient id="paint0_linear_411_355" x1="63.8596" y1="23" x2="-14.4406" y2="22.7384" gradientUnits="userSpaceOnUse">
                <stop stop-color="#3CDDE4"></stop>
                <stop offset="1" stop-color="#7E23D1"></stop>
            </linearGradient>
        </defs>
    </symbol>

    <symbol xmlns="http://www.w3.org/2000/svg" viewBox="0 0 31 20" id="icon-menu">
        <rect width="31" height="2" fill="white"></rect>
        <rect y="9" width="31" height="2" fill="white"></rect>
        <rect y="18" width="31" height="2" fill="white"></rect>
    </symbol>

    <symbol xmlns="http://www.w3.org/2000/svg" viewBox="0 0 28 8" id="icon-arrow">
        <path d="M0.646445 3.64644C0.451183 3.84171 0.451183 4.15829 0.646445 4.35355L3.82842 7.53553C4.02369 7.73079 4.34027 7.73079 4.53553 7.53553C4.73079 7.34027 4.73079 7.02369 4.53553 6.82843L1.7071 4L4.53553 1.17157C4.73079 0.976309 4.73079 0.659726 4.53553 0.464464C4.34027 0.269202 4.02369 0.269202 3.82843 0.464464L0.646445 3.64644ZM28 3.5L0.999998 3.5L0.999998 4.5L28 4.5L28 3.5Z"></path>
    </symbol>

    <symbol fill="none" xmlns="http://www.w3.org/2000/svg" viewBox="0 0 11 6" id="icon-arrow-2">
        <path d="M1 5L5.35246 1L10 5" stroke-linejoin="round"></path>
    </symbol>

    <symbol fill="none" xmlns="http://www.w3.org/2000/svg" viewBox="0 0 22 23" id="icon-info">
        <path d="M10.75 17.25C10.9489 17.25 11.1397 17.171 11.2803 17.0303C11.421 16.8897 11.5 16.6989 11.5 16.5V10.5C11.5 10.3011 11.421 10.1103 11.2803 9.96967C11.1397 9.82902 10.9489 9.75 10.75 9.75C10.5511 9.75 10.3603 9.82902 10.2197 9.96967C10.079 10.1103 10 10.3011 10 10.5V16.5C10 16.914 10.336 17.25 10.75 17.25ZM10.75 6.5C11.0152 6.5 11.2696 6.60536 11.4571 6.79289C11.6446 6.98043 11.75 7.23478 11.75 7.5C11.75 7.76522 11.6446 8.01957 11.4571 8.20711C11.2696 8.39464 11.0152 8.5 10.75 8.5C10.4848 8.5 10.2304 8.39464 10.0429 8.20711C9.85536 8.01957 9.75 7.76522 9.75 7.5C9.75 7.23478 9.85536 6.98043 10.0429 6.79289C10.2304 6.60536 10.4848 6.5 10.75 6.5Z" fill="#B7ACC2"></path>
        <path fill-rule="evenodd" clip-rule="evenodd" d="M0 11.5C0 5.563 4.813 0.75 10.75 0.75C16.687 0.75 21.5 5.563 21.5 11.5C21.5 17.437 16.687 22.25 10.75 22.25C4.813 22.25 0 17.437 0 11.5ZM10.75 2.25C8.29675 2.25 5.94397 3.22455 4.20926 4.95926C2.47455 6.69397 1.5 9.04675 1.5 11.5C1.5 13.9533 2.47455 16.306 4.20926 18.0407C5.94397 19.7754 8.29675 20.75 10.75 20.75C13.2033 20.75 15.556 19.7754 17.2907 18.0407C19.0254 16.306 20 13.9533 20 11.5C20 9.04675 19.0254 6.69397 17.2907 4.95926C15.556 3.22455 13.2033 2.25 10.75 2.25Z" fill="#B7ACC2"></path>
    </symbol>

</svg>