<svg width="0" height="0" class="hidden">
    <symbol xmlns="http://www.w3.org/2000/svg" viewBox="0 0 11 11" id="icon-arrow-diagonal">
        <path d="M1.18462 11L0 9.81539L8.12308 1.69231H0.846154V0H11V10.1538H9.30769V2.87692L1.18462 11Z"></path>
    </symbol>

    <symbol xmlns="http://www.w3.org/2000/svg" viewBox="0 0 15 15" id="icon-close">
        <path d="M1.51913 1L14 14M13.4809 1L1 14" stroke="#B7ACC2" stroke-width="1.5"></path>
    </symbol>

    <symbol xmlns="http://www.w3.org/2000/svg" viewBox="0 0 14 15" id="icon-search">
        <path d="M12.6477 14.2809L8.19318 9.82006C7.79545 10.1387 7.33807 10.3909 6.82102 10.5768C6.30398 10.7627 5.75379 10.8556 5.17045 10.8556C3.72538 10.8556 2.5025 10.3546 1.50182 9.35246C0.500606 8.34982 0 7.12494 0 5.67781C0 4.23068 0.500606 3.00579 1.50182 2.00316C2.5025 1.00105 3.72538 0.5 5.17045 0.5C6.61553 0.5 7.83867 1.00105 8.83989 2.00316C9.84057 3.00579 10.3409 4.23068 10.3409 5.67781C10.3409 6.26197 10.2481 6.81294 10.0625 7.33073C9.87689 7.84851 9.625 8.30654 9.30682 8.70484L13.7812 13.1856C13.9271 13.3317 14 13.5109 14 13.7233C14 13.9358 13.9205 14.1216 13.7614 14.2809C13.6155 14.427 13.4299 14.5 13.2045 14.5C12.9792 14.5 12.7936 14.427 12.6477 14.2809ZM5.17045 9.26245C6.16477 9.26245 7.01008 8.91407 7.70636 8.21733C8.40212 7.52005 8.75 6.67354 8.75 5.67781C8.75 4.68208 8.40212 3.83557 7.70636 3.13829C7.01008 2.44155 6.16477 2.09317 5.17045 2.09317C4.17614 2.09317 3.33083 2.44155 2.63455 3.13829C1.93879 3.83557 1.59091 4.68208 1.59091 5.67781C1.59091 6.67354 1.93879 7.52005 2.63455 8.21733C3.33083 8.91407 4.17614 9.26245 5.17045 9.26245Z" fill="#33DCD8"></path>
    </symbol>

</svg>