<svg width="0" height="0" class="hidden">
    <symbol xmlns="http://www.w3.org/2000/svg" viewBox="0 0 11 11" id="icon-arrow-diagonal">
        <path d="M1.18462 11L0 9.81539L8.12308 1.69231H0.846154V0H11V10.1538H9.30769V2.87692L1.18462 11Z"></path>
    </symbol>

    <symbol xmlns="http://www.w3.org/2000/svg" viewBox="0 0 15 15" id="icon-close">
        <path d="M1.51913 1L14 14M13.4809 1L1 14" stroke="#B7ACC2" stroke-width="1.5"></path>
    </symbol>

    <symbol xmlns="http://www.w3.org/2000/svg" viewBox="0 0 14 15" id="icon-search">
        <path d="M12.6477 14.2809L8.19318 9.82006C7.79545 10.1387 7.33807 10.3909 6.82102 10.5768C6.30398 10.7627 5.75379 10.8556 5.17045 10.8556C3.72538 10.8556 2.5025 10.3546 1.50182 9.35246C0.500606 8.34982 0 7.12494 0 5.67781C0 4.23068 0.500606 3.00579 1.50182 2.00316C2.5025 1.00105 3.72538 0.5 5.17045 0.5C6.61553 0.5 7.83867 1.00105 8.83989 2.00316C9.84057 3.00579 10.3409 4.23068 10.3409 5.67781C10.3409 6.26197 10.2481 6.81294 10.0625 7.33073C9.87689 7.84851 9.625 8.30654 9.30682 8.70484L13.7812 13.1856C13.9271 13.3317 14 13.5109 14 13.7233C14 13.9358 13.9205 14.1216 13.7614 14.2809C13.6155 14.427 13.4299 14.5 13.2045 14.5C12.9792 14.5 12.7936 14.427 12.6477 14.2809ZM5.17045 9.26245C6.16477 9.26245 7.01008 8.91407 7.70636 8.21733C8.40212 7.52005 8.75 6.67354 8.75 5.67781C8.75 4.68208 8.40212 3.83557 7.70636 3.13829C7.01008 2.44155 6.16477 2.09317 5.17045 2.09317C4.17614 2.09317 3.33083 2.44155 2.63455 3.13829C1.93879 3.83557 1.59091 4.68208 1.59091 5.67781C1.59091 6.67354 1.93879 7.52005 2.63455 8.21733C3.33083 8.91407 4.17614 9.26245 5.17045 9.26245Z" fill="#33DCD8"></path>
    </symbol>

    <symbol fill="none"
        xmlns="http://www.w3.org/2000/svg" viewBox="0 0 26 53" id="icon-slider-arrow-left">
        <path d="M24 51L0.999999 27.3033L24 2" stroke="#B7ACC2" stroke-width="2" stroke-linecap="square" stroke-linejoin="round"></path>
    </symbol>

    <symbol fill="none"
        xmlns="http://www.w3.org/2000/svg" viewBox="0 0 26 53" id="icon-slider-arrow-right">
        <path d="M2 2L25 25.6967L2 51" stroke="#B7ACC2" stroke-width="2" stroke-linecap="square" stroke-linejoin="round"></path>
    </symbol>

    <symbol fill="none" xmlns="http://www.w3.org/2000/svg" viewBox="0 0 56 46" id="icon-quotation-marks">
        <path d="M24.1955 0C14.2721 0.694757 0.00784 2.27333 0 21.637V46H22.1435V19.9334H14.7908C14.325 12.9731 20.0774 11.1759 26.3328 9.79625L24.1955 0ZM53.8626 0C43.9392 0.694757 29.675 2.27337 29.6672 21.637V46H51.8107V19.9334H44.458C43.9922 12.9731 49.7446 11.1759 56 9.79625L53.8626 0Z" fill="url(#paint0_linear_411_355)" fill-opacity="0.7"></path>
        <defs>
            <linearGradient id="paint0_linear_411_355" x1="63.8596" y1="23" x2="-14.4406" y2="22.7384" gradientUnits="userSpaceOnUse">
                <stop stop-color="#3CDDE4"></stop>
                <stop offset="1" stop-color="#7E23D1"></stop>
            </linearGradient>
        </defs>
    </symbol>

    <symbol xmlns="http://www.w3.org/2000/svg" viewBox="0 0 31 20" id="icon-menu">
        <rect width="31" height="2" fill="white"></rect>
        <rect y="9" width="31" height="2" fill="white"></rect>
        <rect y="18" width="31" height="2" fill="white"></rect>
    </symbol>

    <symbol xmlns="http://www.w3.org/2000/svg" viewBox="0 0 28 8" id="icon-arrow">
        <path d="M0.646445 3.64644C0.451183 3.84171 0.451183 4.15829 0.646445 4.35355L3.82842 7.53553C4.02369 7.73079 4.34027 7.73079 4.53553 7.53553C4.73079 7.34027 4.73079 7.02369 4.53553 6.82843L1.7071 4L4.53553 1.17157C4.73079 0.976309 4.73079 0.659726 4.53553 0.464464C4.34027 0.269202 4.02369 0.269202 3.82843 0.464464L0.646445 3.64644ZM28 3.5L0.999998 3.5L0.999998 4.5L28 4.5L28 3.5Z"></path>
    </symbol>

    <symbol fill="none" xmlns="http://www.w3.org/2000/svg" viewBox="0 0 11 6" id="icon-arrow-2">
        <path d="M1 5L5.35246 1L10 5" stroke-linejoin="round"></path>
    </symbol>

    <symbol fill="none" xmlns="http://www.w3.org/2000/svg" viewBox="0 0 22 23" id="icon-info">
        <path d="M10.75 17.25C10.9489 17.25 11.1397 17.171 11.2803 17.0303C11.421 16.8897 11.5 16.6989 11.5 16.5V10.5C11.5 10.3011 11.421 10.1103 11.2803 9.96967C11.1397 9.82902 10.9489 9.75 10.75 9.75C10.5511 9.75 10.3603 9.82902 10.2197 9.96967C10.079 10.1103 10 10.3011 10 10.5V16.5C10 16.914 10.336 17.25 10.75 17.25ZM10.75 6.5C11.0152 6.5 11.2696 6.60536 11.4571 6.79289C11.6446 6.98043 11.75 7.23478 11.75 7.5C11.75 7.76522 11.6446 8.01957 11.4571 8.20711C11.2696 8.39464 11.0152 8.5 10.75 8.5C10.4848 8.5 10.2304 8.39464 10.0429 8.20711C9.85536 8.01957 9.75 7.76522 9.75 7.5C9.75 7.23478 9.85536 6.98043 10.0429 6.79289C10.2304 6.60536 10.4848 6.5 10.75 6.5Z" fill="#B7ACC2"></path>
        <path fill-rule="evenodd" clip-rule="evenodd" d="M0 11.5C0 5.563 4.813 0.75 10.75 0.75C16.687 0.75 21.5 5.563 21.5 11.5C21.5 17.437 16.687 22.25 10.75 22.25C4.813 22.25 0 17.437 0 11.5ZM10.75 2.25C8.29675 2.25 5.94397 3.22455 4.20926 4.95926C2.47455 6.69397 1.5 9.04675 1.5 11.5C1.5 13.9533 2.47455 16.306 4.20926 18.0407C5.94397 19.7754 8.29675 20.75 10.75 20.75C13.2033 20.75 15.556 19.7754 17.2907 18.0407C19.0254 16.306 20 13.9533 20 11.5C20 9.04675 19.0254 6.69397 17.2907 4.95926C15.556 3.22455 13.2033 2.25 10.75 2.25Z" fill="#B7ACC2"></path>
    </symbol>

    <symbol fill="none" xmlns="http://www.w3.org/2000/svg" viewBox="0 0 18 21" id="icon-adress">
        <path d="M9 1.05153e-08C6.62856 -0.000110659 4.35291 0.873344 2.66765 2.43052C0.982384 3.9877 0.0237144 6.10275 0 8.31597C0 14.07 7.93125 20.4749 8.26875 20.7479C8.47252 20.9106 8.73185 21 9 21C9.26815 21 9.52748 20.9106 9.73125 20.7479C10.125 20.4749 18 14.07 18 8.31597C17.9763 6.10275 17.0176 3.9877 15.3324 2.43052C13.6471 0.873344 11.3714 -0.000110659 9 1.05153e-08ZM9 11.55C8.22124 11.55 7.45996 11.3344 6.81244 10.9306C6.16492 10.5268 5.66024 9.95285 5.36222 9.28133C5.0642 8.60982 4.98623 7.8709 5.13816 7.15802C5.29009 6.44514 5.6651 5.79032 6.21577 5.27637C6.76644 4.76241 7.46803 4.4124 8.23183 4.2706C8.99563 4.1288 9.78733 4.20158 10.5068 4.47973C11.2263 4.75788 11.8413 5.22891 12.2739 5.83326C12.7066 6.43761 12.9375 7.14813 12.9375 7.87497C12.9375 8.84964 12.5227 9.78439 11.7842 10.4736C11.0458 11.1628 10.0443 11.55 9 11.55V11.55Z" fill="#B7ACC2"></path>
    </symbol>
    
    <symbol fill="none" xmlns="http://www.w3.org/2000/svg" viewBox="0 0 20 16" id="icon-mail">
        <path d="M18 0H2C0.9 0 0.00999999 0.9 0.00999999 2L0 14C0 15.1 0.9 16 2 16H18C19.1 16 20 15.1 20 14V2C20 0.9 19.1 0 18 0ZM17.6 4.25L10.53 8.67C10.21 8.87 9.79 8.87 9.47 8.67L2.4 4.25C2.29973 4.19371 2.21192 4.11766 2.14189 4.02645C2.07186 3.93525 2.02106 3.83078 1.99258 3.71937C1.96409 3.60796 1.9585 3.49194 1.97616 3.37831C1.99381 3.26468 2.03434 3.15581 2.09528 3.0583C2.15623 2.96079 2.23632 2.87666 2.33073 2.811C2.42513 2.74533 2.53187 2.69951 2.6445 2.6763C2.75712 2.65309 2.87328 2.65297 2.98595 2.67595C3.09863 2.69893 3.20546 2.74453 3.3 2.81L10 7L16.7 2.81C16.7945 2.74453 16.9014 2.69893 17.014 2.67595C17.1267 2.65297 17.2429 2.65309 17.3555 2.6763C17.4681 2.69951 17.5749 2.74533 17.6693 2.811C17.7637 2.87666 17.8438 2.96079 17.9047 3.0583C17.9657 3.15581 18.0062 3.26468 18.0238 3.37831C18.0415 3.49194 18.0359 3.60796 18.0074 3.71937C17.9789 3.83078 17.9281 3.93525 17.8581 4.02645C17.7881 4.11766 17.7003 4.19371 17.6 4.25V4.25Z" fill="#B7ACC2"></path>
    </symbol>

    <symbol fill="none" xmlns="http://www.w3.org/2000/svg" viewBox="0 0 18 18" id="icon-phone">
        <path d="M17.9898 14.2053C17.9469 13.9399 17.7805 13.713 17.5313 13.5782L13.8452 11.4058L13.8148 11.3888C13.6603 11.3114 13.4896 11.2717 13.3167 11.273C13.0079 11.273 12.713 11.3901 12.5083 11.5953L11.4203 12.6841C11.3738 12.7284 11.222 12.7924 11.176 12.7947C11.1634 12.7937 9.9101 12.7034 7.60275 10.3952C5.29952 8.09178 5.2018 6.83425 5.20103 6.83425C5.20232 6.76995 5.26557 6.6187 5.31057 6.57189L6.23835 5.64411C6.56518 5.31641 6.66315 4.77317 6.46926 4.35236L4.42034 0.495914C4.27145 0.189311 3.98217 0 3.66125 0C3.4342 0 3.21511 0.0941414 3.04385 0.265191L0.514845 2.78926C0.272358 3.03053 0.0635573 3.45236 0.0180428 3.79189C-0.00407151 3.95419 -0.452787 7.82839 4.85723 13.1407C9.36521 17.6494 12.8804 17.9998 13.8511 17.9998C13.9693 18.0013 14.0875 17.9952 14.2049 17.9815C14.5433 17.9362 14.9645 17.7279 15.2055 17.4864L17.7324 14.959C17.9386 14.7516 18.0328 14.4777 17.9898 14.2053V14.2053Z" fill="#B7ACC2"></path>
    </symbol>

</svg>